<?xml version="1.0" encoding="UTF-8" standalone="no"?>
<!DOCTYPE svg PUBLIC "-//W3C//DTD SVG 1.1//EN" "http://www.w3.org/Graphics/SVG/1.1/DTD/svg11.dtd">
<svg width="100%" height="100%" viewBox="0 0 466 500" version="1.1" xmlns="http://www.w3.org/2000/svg" xmlns:xlink="http://www.w3.org/1999/xlink" xml:space="preserve" xmlns:serif="http://www.serif.com/" style="fill-rule:evenodd;clip-rule:evenodd;stroke-linejoin:round;stroke-miterlimit:2;">
    <g transform="matrix(0.908452,0,0,0.908452,22.214,23.2808)">
        <g id="l4SXa5o1RtgLxY9AiylWxC9">
            <path d="M166.253,10.691L164,12.87C161.362,15.424 159.621,18.608 158.838,21.993L158.787,21.976C157.03,21.4 155.227,21.097 153.432,21.064C151.051,19.532 148.718,18.849 147.353,18.49C146.976,18.391 146.542,18.286 146.055,18.194C137.988,9.155 124.817,-3.647 121.094,-6.062C121.007,-6.119 120.919,-6.175 120.831,-6.23C116.701,-8.811 102.011,-13.818 91.299,-15.754C76.579,-18.443 62.157,-16.438 51.516,-11.047C51.465,-11.02 51.413,-10.994 51.361,-10.967C40.902,-5.544 35.53,0.869 32.237,11.135C32.201,11.246 32.167,11.358 32.133,11.47C32.005,11.896 31.723,12.635 31.654,12.812C28.866,18.082 25.582,28.099 25.017,34.727C25.009,34.826 25.001,34.925 24.995,35.024C24.816,37.612 24.28,41.665 23.994,44.188L23.292,49.265C22.969,50.107 22.676,51.066 22.437,52.147C21.905,54.559 21.17,64.097 20.955,74.809C20.807,80.65 20.649,85.964 20.471,90.8C19.103,90.572 17.616,90.451 16,90.451C12.931,90.451 8.002,91.403 2.949,94.676C-2.24,98.036 -8.438,104.586 -10.967,109.46C-16.827,120.75 -16.57,140.946 -8.228,157.32C-8.217,157.341 -8.207,157.362 -8.196,157.383C-2.991,167.503 10.444,181.911 16.804,185.091C21.359,187.5 28.427,188.873 34.672,188.354C40.229,187.892 45.093,185.979 48.375,183.67C48.423,183.636 48.471,183.602 48.518,183.568C50.251,182.324 52.111,180.615 53.967,178.56C55.277,181.047 56.994,183.423 59.137,185.654L59.052,191.767C58.702,219.634 60.325,230.534 64.64,241.494C64.652,241.526 64.665,241.557 64.677,241.589C67.533,248.727 69.957,252.861 72.478,255.7C71.035,262.477 71.666,265.196 74.092,272.128C76.499,279.08 80.182,284.236 84.354,287.791C83.751,290.476 83.555,292.862 83.621,295.111C83.731,298.813 84.485,302.368 86.279,306.253C85.322,308.351 84.618,310.438 84.151,312.262C82.491,315.484 80.615,322.111 80.453,333.331C80.451,333.421 80.451,333.51 80.451,333.6C80.451,347.791 81.18,349.737 85.576,358.23C88.683,364.385 94.071,370.865 96.97,373.039L96.403,372.596C98.096,373.972 101.327,376.571 103.816,378.425C105.807,379.994 108.079,381.432 110.586,382.672C109.186,393.732 109.409,397.84 110.478,406.667C113.048,429.529 116.188,439.526 124.136,454.019C124.152,454.049 124.168,454.079 124.185,454.108C124.857,455.318 125.693,457.078 126.069,457.889C126.314,458.852 126.669,459.898 127.166,461.015C128.065,463.031 132.493,469.708 138.15,476.475C151.17,492.141 160.572,498.963 187.444,510.112C190.892,513.36 195.963,515.549 201,515.549C202.022,515.549 203.056,515.458 204.083,515.273L204.651,515.408L205.315,515.536C209.05,516.221 223.53,516.083 242.457,514.592C242.485,514.59 242.513,514.588 242.54,514.585C256.682,513.407 269.293,510.111 282.021,504.456C288.333,501.662 303.585,491.535 309.902,486.208C313.605,483.085 315.743,479.957 316.866,477.838L316.491,478.61C316.491,478.61 320.005,473.54 322.733,469.804C334.122,454.42 335.99,450.81 340.338,438.825C340.344,438.808 340.35,438.791 340.356,438.773C345.703,423.896 347.584,414.003 347.942,397.537C348.104,393.137 348.636,388.381 348.77,387.24L349.039,386.59C350.18,386.208 351.344,385.755 352.514,385.237C358.403,382.631 373.68,367.149 375.955,362.762C380.316,354.389 381.017,352.358 380.319,340.142C380.316,340.088 380.313,340.034 380.309,339.98C379.695,330.661 377.222,321.965 373.333,314.48C373.886,313.419 374.392,312.293 374.849,311.102C382.472,308.048 389.487,302.126 393.013,294.747C395.182,290.3 395.999,287.465 396.295,284.291C396.594,281.089 396.251,276.925 393.13,266.848L392.771,265.673C397.354,256.333 400.549,244.215 400.549,237.6C400.549,235.395 400.076,230.886 399.275,226.072C400.784,224.018 404,218.031 405.654,213.585C405.97,212.735 406.238,211.909 406.456,211.118C408.496,208.303 409.836,205.766 410.577,203.108C412.322,201.771 413.844,200.313 414.986,198.86C415.217,198.566 415.438,198.266 415.651,197.958C417.444,195.368 418.565,193.147 419.249,191.203C426.189,195.811 433.58,197.172 440.701,195.835C444.169,195.205 448.676,193.444 453.333,190.138C459.556,185.719 466.972,177.869 472.283,169.245C481.507,154.376 483.87,138.258 481.04,125.893C478.467,114.644 471.918,105.882 462.315,100.92C462.293,100.909 462.271,100.898 462.249,100.886C455.984,97.682 450.612,97.378 446.305,98.36L446.145,89.391C445.854,76.218 445.323,64.705 444.997,62.141C444.753,60.218 444.325,58.67 443.87,57.47L443.866,57.441C443.834,57.109 443.794,56.778 443.744,56.448C443.441,54.425 442.833,49.974 442.327,46.736C442.207,45.968 442.098,44.955 442.036,44.3C442.141,43.005 442.117,41.585 441.921,40.038C441.505,36.754 437.417,24.864 434.916,19.575C434.352,17.78 433.51,15.434 432.55,13.193C432.425,12.902 432.293,12.615 432.153,12.33C427.667,3.185 416.001,-6.044 398.918,-9.15C398.906,-9.152 398.894,-9.154 398.882,-9.157C387.006,-11.292 355.932,-5.33 346.056,0.941C341.442,3.872 330.654,14.705 321.91,24.558C319.765,23.364 317.799,22.607 315.757,22.14C313.923,18.308 311.706,16.255 309.63,14.698C308.568,13.902 307.351,13.098 305.813,12.408C303.6,7.693 300.708,3.305 298.017,0.93C293.176,-3.345 288.004,-4.549 284.1,-4.549C279.088,-4.549 274.941,-3.098 271.354,-0.575C269.652,0.622 267.837,2.255 266.196,4.565C265.529,4.241 264.823,3.939 264.079,3.656C263.98,3.619 263.882,3.583 263.783,3.547C261.237,2.631 256.518,1.826 250.855,2.7C247.91,3.155 244.538,4.095 241.353,5.251C240.522,4.04 239.591,2.906 238.581,1.854C238.494,1.763 238.406,1.673 238.316,1.584C232.869,-3.864 228.736,-4.914 224.854,-5.322C224.38,-5.372 223.882,-5.413 223.35,-5.424L222.374,-6.022C220.25,-7.246 217.738,-8.314 214.124,-8.746C211.179,-10.702 207.575,-12.741 204.063,-14.216C197.767,-16.861 191.699,-17.521 189.091,-17.251C188.91,-17.232 188.729,-17.211 188.548,-17.187C183.15,-16.467 175.798,-12.714 171.046,-5.61C168.636,-2.131 167.536,0.473 166.87,3.052C166.333,5.133 165.981,7.379 166.253,10.691ZM205.315,515.536L205.282,515.532L205.323,515.538C205.677,515.606 206.037,515.661 206.399,515.706L205.315,515.536ZM273.766,505.309L273.74,505.323L273.766,505.309ZM407.543,205.19L407.528,205.199C407.465,206.332 407.252,208.002 406.759,209.974C407.403,208.17 407.522,206.336 407.543,205.19ZM464.307,106.984L463.834,106.527L464.249,106.923L464.307,106.984ZM25.178,45.559L25.606,44.918L25.266,45.411L25.178,45.559ZM434.947,19.674C435.152,20.299 435.321,20.855 435.447,21.311C435.574,21.767 435.659,22.124 435.697,22.351C435.583,21.669 435.325,20.642 434.947,19.674Z"/>
        </g>
    </g>
</svg>
