<svg xmlns="http://www.w3.org/2000/svg" width="466" height="500" viewBox="0 0 4660 5000"><g id="l4SXa5o1RtgLxY9AiylWxC9" fill="rgb(0,0,0)" style="transform: none;"><g style="transform: none;"><path id="pmg9pK9nx" d="M2087 4973 c-16 -2 -31 -11 -34 -19 -7 -19 -33 -18 -33 1 0 8 -4 15 -10 15 -5 0 -10 -4 -10 -8 0 -5 -19 -17 -42 -27 -238 -98 -321 -153 -434 -289 -46 -55 -84 -107 -84 -115 0 -8 -16 -44 -36 -80 -68 -124 -93 -210 -115 -406 -12 -99 -10 -129 17 -310 l6 -41 -60 -12 c-40 -8 -75 -24 -101 -45 -23 -17 -54 -42 -70 -55 -16 -12 -43 -50 -60 -84 -29 -56 -31 -69 -31 -162 1 -69 5 -109 15 -126 8 -14 14 -33 15 -43 0 -10 11 -33 25 -51 31 -41 31 -56 0 -106 -30 -48 -31 -77 -4 -140 l21 -49 -22 -30 c-12 -17 -32 -34 -45 -37 -33 -8 -61 -42 -79 -94 -14 -40 -14 -51 -1 -101 18 -68 14 -82 -30 -109 -27 -17 -40 -38 -66 -103 -37 -94 -46 -188 -43 -427 l2 -144 -38 -34 c-69 -58 -65 -142 10 -219 22 -23 40 -50 40 -59 0 -74 -46 -349 -71 -424 -16 -49 -29 -98 -29 -108 0 -10 -6 -26 -13 -36 -12 -16 -19 -5 -61 103 -32 80 -50 140 -52 178 -5 75 -47 261 -78 346 -24 67 -70 134 -109 162 -27 19 -90 19 -126 0 -44 -22 -132 -126 -168 -196 -54 -106 -66 -236 -28 -309 19 -37 81 -90 105 -90 27 0 25 9 -11 46 -27 27 -32 42 -36 96 -4 56 -2 67 22 104 30 45 107 102 144 106 18 2 29 -5 42 -27 46 -77 63 -229 74 -663 2 -100 7 -188 12 -195 4 -6 8 -18 8 -27 1 -8 5 -37 9 -65 3 -27 9 -73 11 -102 4 -47 27 -123 45 -148 4 -5 13 -27 19 -47 17 -53 46 -85 100 -113 75 -38 177 -49 281 -30 83 15 198 50 230 70 37 24 181 170 241 244 32 40 37 43 58 32 22 -12 23 -11 20 26 -1 21 1 49 5 62 8 23 9 23 52 -20 l44 -43 67 22 67 22 32 -31 c17 -17 46 -32 66 -36 45 -7 54 -32 27 -78 l-20 -33 31 -30 c17 -17 39 -33 49 -37 17 -5 17 -10 6 -60 -12 -51 -12 -57 9 -87 13 -20 31 -34 46 -36 29 -3 156 59 153 75 -1 6 14 10 35 9 32 -1 39 3 52 30 16 30 16 31 48 15 31 -14 34 -14 54 6 24 25 27 64 7 110 -12 29 -11 35 3 49 15 15 18 15 35 -6 39 -48 54 -60 77 -60 14 0 28 5 31 10 5 8 11 8 19 0 29 -23 126 -49 151 -40 29 11 31 28 14 114 -15 74 -5 85 43 49 27 -21 38 -38 43 -67 4 -21 16 -47 27 -58 20 -20 20 -20 43 2 30 29 41 21 49 -36 7 -53 20 -74 47 -74 24 0 69 77 69 118 0 31 2 32 40 32 37 0 40 2 49 37 6 20 8 40 5 44 -8 14 33 29 78 29 34 0 52 8 88 36 25 19 52 45 61 56 l17 21 12 -24 c34 -64 237 -283 300 -323 74 -47 307 -91 396 -75 99 18 173 61 199 114 9 21 18 43 19 49 1 6 5 16 9 23 16 25 57 145 52 152 -2 5 0 35 5 67 5 32 11 76 14 96 2 21 7 42 11 48 3 5 8 122 11 258 5 317 17 446 51 540 14 41 32 76 41 79 44 18 175 -97 188 -163 10 -52 -11 -124 -43 -152 -34 -31 -18 -50 25 -28 120 62 132 252 27 421 -56 91 -142 172 -192 181 -100 19 -205 -135 -238 -348 -2 -15 -8 -44 -14 -65 -5 -21 -13 -69 -17 -107 -4 -47 -23 -111 -55 -193 -27 -69 -49 -131 -49 -139 0 -33 -17 -9 -44 64 -73 198 -115 332 -121 389 l-7 62 29 6 c15 4 38 8 51 11 13 2 26 12 29 22 4 9 17 30 30 45 13 16 23 33 23 39 0 21 -74 88 -98 88 -13 0 -20 4 -17 10 3 6 24 10 45 10 70 0 89 22 53 62 -18 20 -12 40 28 90 21 26 21 26 3 52 -11 14 -33 28 -52 32 -32 6 -33 8 -27 41 4 25 1 40 -14 60 -12 14 -21 31 -21 38 0 17 -40 105 -47 105 -4 0 -17 -10 -30 -21 -20 -19 -23 -20 -29 -6 -3 9 3 60 15 112 12 53 21 116 21 141 0 51 -30 147 -67 215 l-25 47 26 85 c31 100 31 99 9 144 -23 49 -81 86 -130 81 l-38 -3 -7 48 c-8 57 -29 94 -64 109 -13 6 -24 15 -24 20 0 4 15 28 34 53 48 63 78 146 84 237 4 70 2 82 -23 130 -15 29 -39 66 -54 82 -30 33 -115 76 -151 76 -34 0 -46 10 -54 44 -4 17 -14 46 -23 65 -10 25 -16 76 -19 161 -3 142 -19 227 -65 355 -37 102 -54 132 -151 263 -38 52 -72 100 -75 108 -8 22 -192 150 -258 179 -108 48 -215 76 -335 86 -165 13 -291 18 -323 12z m398 -83 c8 -13 -25 -13 -45 0 -12 8 -9 10 12 10 15 0 30 -4 33 -10z m166 -1 c11 -5 17 -14 14 -20 -7 -11 -45 7 -45 21 0 13 7 13 31 -1z m-315 -9 c60 -6 124 -12 142 -14 23 -4 32 -1 32 10 0 18 14 18 29 0 7 -8 21 -12 33 -8 17 4 20 2 15 -11 -4 -11 -1 -17 8 -17 11 0 57 -18 192 -76 7 -4 10 2 6 15 -7 27 9 27 32 1 13 -14 14 -20 5 -20 -8 0 -2 -13 15 -30 24 -25 35 -29 58 -24 23 5 29 2 34 -15 3 -12 13 -21 24 -21 11 0 21 -9 25 -24 3 -15 11 -23 19 -20 8 4 25 -12 42 -37 15 -24 36 -51 46 -61 9 -10 17 -27 17 -37 0 -10 7 -21 15 -25 9 -3 15 -19 15 -41 0 -24 4 -35 15 -35 8 0 15 -5 15 -12 0 -6 11 -34 24 -62 40 -85 67 -251 65 -406 -1 -144 -13 -214 -55 -308 -39 -88 -113 -211 -163 -270 -47 -57 -131 -112 -168 -112 -24 0 -48 33 -39 55 2 7 -4 15 -17 19 -18 4 -11 12 50 55 74 52 158 140 158 166 0 8 8 20 18 28 10 7 27 42 37 77 10 36 27 88 38 117 18 44 19 52 6 57 -8 3 -12 10 -9 16 4 6 10 8 15 5 14 -8 22 26 27 116 6 99 -10 189 -34 189 -8 0 -17 9 -20 19 -3 11 -12 22 -22 24 -13 4 -12 6 6 12 25 8 21 26 -13 61 -24 23 -31 44 -15 44 5 0 16 -12 26 -26 25 -38 31 -21 6 19 -11 19 -21 46 -21 61 0 14 -4 26 -10 26 -5 0 -10 -7 -10 -15 0 -8 -3 -15 -7 -15 -12 1 -83 93 -83 107 0 26 20 12 40 -28 12 -23 24 -39 26 -36 10 10 -36 87 -61 103 -14 9 -25 23 -25 30 0 8 -7 17 -16 21 -9 3 -35 26 -57 50 -22 24 -50 49 -61 55 -19 10 -19 9 2 -15 16 -16 20 -27 12 -32 -13 -8 -118 49 -145 80 -12 14 -40 27 -70 33 -27 6 -79 23 -115 38 -61 26 -74 28 -205 27 -164 0 -250 -16 -357 -66 -143 -67 -243 -167 -331 -336 -76 -144 -92 -216 -92 -421 0 -169 15 -290 37 -290 4 0 8 -11 8 -24 0 -14 5 -28 10 -31 6 -3 10 -14 10 -24 0 -29 24 -71 41 -71 13 0 17 -8 15 -31 -1 -32 18 -52 27 -27 2 7 3 1 1 -14 -2 -16 1 -28 6 -28 6 0 10 7 10 15 0 8 5 15 11 15 8 0 10 -12 6 -34 -4 -28 -2 -35 14 -39 10 -3 19 -13 19 -22 0 -9 -6 -15 -12 -12 -7 2 -27 -2 -45 -10 -53 -22 -77 -16 -122 28 -31 31 -40 47 -35 62 4 12 2 17 -4 13 -13 -8 -48 28 -55 55 -5 17 -3 18 10 7 15 -12 15 -10 1 17 -9 17 -33 90 -54 164 -27 96 -40 129 -45 115 -7 -17 -8 -17 -8 -1 -1 10 -8 29 -17 42 -11 16 -12 25 -5 25 6 0 14 -7 17 -15 4 -8 10 -15 14 -15 12 0 20 101 10 120 -6 10 -6 30 -1 48 6 20 5 34 -2 42 -9 9 -7 16 11 27 12 9 22 25 22 38 0 12 9 47 19 78 18 51 18 58 4 66 -9 5 -13 13 -8 21 6 10 9 10 15 0 11 -18 33 26 27 51 -3 12 0 19 9 19 16 0 19 16 4 25 -8 5 -7 11 1 21 6 8 8 14 5 14 -4 0 -1 7 8 15 8 8 19 15 25 15 15 0 14 17 -1 23 -7 3 -2 6 12 6 18 1 21 4 13 12 -7 7 -8 18 -3 28 4 9 14 29 21 46 16 35 136 155 154 155 5 0 15 7 24 15 34 33 92 73 123 85 18 7 65 28 105 47 60 28 166 54 259 62 6 1 60 -4 120 -9z m-356 -14 c0 -14 -24 -29 -33 -19 -3 3 -3 11 0 19 7 18 33 18 33 0z m740 -6 c0 -5 -7 -10 -15 -10 -8 0 -15 5 -15 10 0 6 7 10 15 10 8 0 15 -4 15 -10z m-277 -125 c31 -8 90 -31 129 -51 146 -73 202 -113 282 -199 76 -83 101 -101 76 -55 -10 18 -9 21 2 18 22 -8 35 -57 18 -68 -13 -8 -9 -21 23 -83 36 -70 71 -176 62 -185 -3 -3 -11 0 -18 6 -24 20 -118 24 -196 9 l-75 -15 -72 78 c-139 147 -298 197 -494 154 -113 -25 -119 -28 -222 -127 -79 -77 -98 -101 -112 -144 -21 -63 -29 -70 -54 -45 -55 55 -180 67 -228 21 l-24 -22 0 49 c0 77 26 160 86 273 83 158 211 287 321 326 27 9 65 24 85 32 38 16 205 39 298 42 31 0 81 -6 113 -14z m447 -5 c12 -23 3 -25 -22 -6 -22 16 -23 26 -3 26 8 0 19 -9 25 -20z m-1180 -11 c0 -5 -7 -9 -15 -9 -15 0 -20 12 -9 23 8 8 24 -1 24 -14z m-57 -50 c-17 -17 -37 -1 -22 17 8 10 15 12 23 4 7 -7 7 -13 -1 -21z m1222 -129 c3 -6 -3 -10 -13 -10 -21 0 -46 23 -36 33 8 7 40 -8 49 -23z m36 -40 c5 0 9 -5 9 -11 0 -15 -43 -7 -48 10 -3 10 0 12 12 8 10 -4 22 -7 27 -7z m-663 -247 c-10 -2 -26 -2 -35 0 -10 3 -2 5 17 5 19 0 27 -2 18 -5z m116 -5 c-15 -7 -28 -7 -40 1 -16 9 -12 10 21 10 35 0 37 -2 19 -11z m190 2 c55 -20 147 -125 131 -149 -3 -5 1 -12 7 -14 9 -4 8 -6 -2 -6 -8 -1 -26 19 -39 44 -13 25 -28 45 -34 45 -5 0 -2 -10 7 -22 9 -13 24 -39 32 -59 12 -27 21 -35 34 -32 19 5 36 -25 22 -39 -5 -5 -7 -30 -4 -56 2 -30 -2 -61 -11 -85 -16 -36 -37 -50 -37 -23 0 7 -7 46 -16 85 -13 55 -20 71 -34 71 -15 0 -18 -11 -22 -72 -2 -40 -1 -76 4 -79 4 -3 1 -14 -7 -25 -10 -14 -14 -15 -15 -4 0 8 -17 -10 -37 -39 -40 -56 -93 -88 -190 -112 -40 -10 -63 -10 -101 -1 -28 6 -65 9 -83 6 -43 -6 -106 28 -130 71 -10 17 -23 58 -30 93 -12 57 -11 66 6 98 26 48 71 74 132 74 41 0 55 -5 77 -26 14 -15 26 -31 26 -36 0 -5 -11 -31 -25 -58 -27 -53 -42 -59 -87 -36 -23 12 -27 12 -32 -1 -11 -27 13 -52 80 -84 56 -26 74 -30 111 -25 61 8 138 52 176 100 35 43 38 58 41 156 1 57 -4 74 -37 138 l-38 74 53 -29 c29 -15 72 -48 95 -71 24 -24 43 -42 43 -39 0 20 -21 44 -79 89 -90 71 -91 72 -54 65 26 -5 31 -3 26 8 -6 17 6 19 41 5z m-284 -45 c30 -16 46 -9 29 12 -9 10 -8 13 4 13 42 0 67 -35 30 -42 -13 -2 -10 -6 11 -16 15 -7 24 -8 21 -2 -11 18 8 11 32 -12 26 -25 30 -40 8 -31 -12 4 -11 -3 6 -31 11 -20 25 -39 30 -42 26 -16 2 -123 -35 -153 -13 -11 -16 -11 -16 3 0 9 -4 16 -10 16 -5 0 -10 15 -10 33 0 42 -54 108 -114 140 -33 17 -58 22 -129 22 -85 0 -87 1 -67 17 29 24 97 41 134 35 l31 -6 -30 15 -30 15 38 -6 c21 -3 45 -9 53 -12 8 -3 14 -1 14 4 0 16 -48 33 -93 33 -32 0 -38 3 -27 11 18 12 82 4 120 -16z m137 0 c3 -9 3 -19 -1 -22 -7 -7 -36 16 -36 28 0 15 30 10 37 -6z m727 -147 c-9 -14 -24 2 -24 25 1 21 1 21 15 3 8 -10 12 -23 9 -28z m-119 6 c35 -38 31 -76 -4 -41 -7 6 -3 -5 10 -26 19 -34 21 -48 16 -115 -6 -80 -23 -142 -38 -142 -10 0 0 101 12 115 27 29 -10 105 -51 105 -17 0 -19 -5 -14 -42 4 -29 1 -49 -8 -61 -13 -18 -16 -18 -63 8 -54 28 -74 59 -74 115 0 65 55 110 137 110 44 0 57 -4 77 -26z m-818 0 c12 -3 24 -12 27 -20 4 -11 2 -12 -14 -4 -10 5 -30 10 -44 10 -14 0 -28 5 -31 10 -7 11 27 13 62 4z m93 -66 c0 -14 -18 -9 -24 8 -11 28 -6 39 9 20 8 -11 15 -23 15 -28z m848 8 c3 -20 0 -27 -10 -24 -7 3 -14 17 -16 32 -3 20 0 27 10 24 7 -3 14 -17 16 -32z m-1372 -11 c17 -13 16 -14 -15 -5 -44 12 -104 -3 -149 -37 -47 -35 -52 -20 -8 22 34 32 43 35 95 35 35 0 65 -6 77 -15z m564 -16 c16 -30 17 -124 1 -143 -17 -20 -35 -21 -27 -1 3 10 -1 15 -14 15 -19 0 -19 1 1 44 12 29 17 54 13 75 -7 36 9 42 26 10z m-556 -43 c26 -35 34 -66 16 -66 -5 0 -10 5 -10 12 0 6 -10 22 -22 35 -30 32 -87 31 -117 -1 -26 -28 -61 -40 -61 -22 0 14 48 61 70 69 8 3 34 6 56 6 36 1 45 -4 68 -33z m491 -42 c-8 -13 -20 -24 -25 -24 -14 0 -2 48 19 80 l16 25 3 -28 c2 -16 -4 -39 -13 -53z m881 51 c8 -21 -6 -41 -17 -24 -12 19 -11 39 1 39 6 0 13 -7 16 -15z m-1382 -58 c16 -25 0 -31 -23 -8 -12 12 -26 21 -32 21 -5 0 -8 4 -4 10 8 12 46 -2 59 -23z m-50 -7 c16 -6 26 -17 26 -30 0 -23 -41 -53 -67 -48 -25 5 -30 58 -7 75 21 16 17 15 48 3z m660 -52 c-8 -27 -25 -50 -32 -44 -6 7 21 66 31 66 5 0 5 -10 1 -22z m466 4 c17 -13 24 -32 28 -72 4 -40 2 -51 -7 -45 -9 5 -12 -2 -9 -26 2 -25 -1 -34 -14 -37 -12 -2 -20 8 -29 37 -13 43 -18 48 -35 31 -13 -13 -75 -1 -73 14 1 6 -1 19 -6 29 -10 23 21 57 68 74 44 16 52 16 77 -5z m-610 -22 c0 -13 -40 -13 -60 0 -11 7 -5 10 23 10 20 0 37 -4 37 -10z m75 -30 c-3 -5 -18 -10 -33 -10 -21 0 -24 2 -12 10 20 13 53 13 45 0z m347 -20 c-2 -16 -8 -30 -13 -30 -10 0 -12 43 -2 53 14 14 19 6 15 -23z m324 -7 c-11 -11 -19 6 -11 24 8 17 8 17 12 0 3 -10 2 -21 -1 -24z m334 -5 c0 -34 -13 -29 -25 10 -5 16 -2 22 9 22 11 0 16 -10 16 -32z m-1471 19 c-2 -2 -21 -14 -43 -27 -37 -22 -38 -22 -27 -2 6 11 16 23 23 25 14 6 54 9 47 4z m52 -38 c9 -17 8 -23 -2 -30 -28 -17 -79 -1 -79 26 0 30 65 34 81 4z m619 -8 c0 -12 -20 -25 -27 -18 -7 7 6 27 18 27 5 0 9 -4 9 -9z m50 -30 c0 -23 -16 -36 -25 -21 -9 14 1 40 15 40 5 0 10 -9 10 -19z m128 -8 c4 -16 -22 -27 -43 -19 -22 8 -6 38 18 34 11 -2 22 -9 25 -15z m372 3 c0 -8 -4 -18 -10 -21 -5 -3 -10 3 -10 14 0 12 5 21 10 21 6 0 10 -6 10 -14z m-330 -25 c0 -24 -18 -37 -32 -23 -8 8 -7 16 2 27 17 21 30 19 30 -4z m-535 -11 c3 -5 -3 -10 -14 -10 -12 0 -21 5 -21 10 0 6 6 10 14 10 8 0 18 -4 21 -10z m450 -25 c0 -10 -6 -20 -12 -22 -8 -3 -13 5 -13 22 0 17 5 25 13 23 6 -3 12 -13 12 -23z m743 17 c9 -5 39 -20 67 -33 35 -17 56 -36 72 -64 34 -60 17 -62 -45 -3 -51 48 -74 62 -135 82 -10 3 -15 10 -12 16 8 12 29 13 53 2z m-1488 -17 c-7 -8 -16 -15 -21 -15 -5 0 -6 7 -3 15 4 8 13 15 21 15 13 0 13 -3 3 -15z m798 -17 c-6 -18 -28 -21 -28 -4 0 9 7 16 16 16 9 0 14 -5 12 -12z m70 -52 c3 -12 -1 -17 -10 -14 -7 3 -15 13 -16 22 -3 12 1 17 10 14 7 -3 15 -13 16 -22z m-797 -7 c-13 -11 -27 -17 -30 -13 -7 7 28 34 43 34 6 -1 0 -10 -13 -21z m600 3 c22 -9 25 -15 22 -49 -3 -33 -2 -35 7 -15 5 13 16 22 22 20 15 -5 18 -58 4 -57 -5 0 -12 -5 -17 -12 -6 -10 -11 -10 -22 0 -13 10 -16 7 -22 -19 -7 -32 -22 -39 -31 -15 -5 12 -21 15 -74 13 -53 -2 -72 1 -87 15 -11 9 -32 17 -46 17 -18 0 -27 5 -27 16 0 14 -3 14 -15 4 -12 -10 -15 -10 -15 0 0 7 -12 1 -26 -14 -33 -32 -64 -34 -72 -3 -6 22 -6 22 -12 -3 -7 -31 -46 -40 -54 -13 -3 11 -4 9 -3 -7 2 -19 -3 -25 -18 -25 -11 -1 -29 -6 -40 -13 -19 -11 -18 -11 10 -13 l30 -1 -34 -11 c-27 -9 -36 -8 -45 5 -6 8 -16 13 -22 11 -12 -4 -34 39 -34 68 0 11 5 30 11 41 9 17 13 18 20 7 7 -11 10 -9 15 9 4 14 12 21 21 18 7 -3 16 1 19 9 5 11 25 15 78 16 39 1 105 5 146 9 95 10 277 5 311 -8z m871 -6 c37 -26 108 -129 108 -156 0 -51 -42 -151 -77 -186 -38 -38 -85 -62 -91 -46 -2 6 -12 8 -22 5 -11 -3 -20 0 -20 6 0 5 -6 8 -14 5 -16 -6 -46 43 -39 64 3 7 26 24 53 37 52 26 67 56 50 100 -5 14 -9 29 -7 33 3 9 -7 12 -43 12 -20 0 -30 -5 -30 -15 0 -17 -49 -45 -79 -45 -24 0 -54 41 -49 67 2 10 10 18 18 18 9 0 16 12 18 30 7 61 67 98 149 91 29 -2 63 -12 75 -20z m-2095 -18 c13 -12 23 -29 23 -38 0 -9 5 -21 12 -28 18 -18 11 -72 -13 -98 -24 -26 -58 -31 -92 -12 -55 29 -61 70 -14 98 23 14 27 20 14 20 -11 0 -35 -16 -54 -35 -19 -19 -39 -33 -44 -30 -8 6 -14 -11 -22 -65 -4 -21 -5 -19 -6 7 0 17 4 44 9 58 8 20 7 26 -2 23 -6 -2 -17 -20 -24 -39 l-12 -34 -1 42 c-1 23 -6 43 -12 45 -12 4 -1 38 13 38 6 0 24 12 41 26 26 22 38 25 83 22 41 -2 50 0 42 10 -19 22 34 14 59 -10z m1331 -27 c3 -16 -1 -22 -10 -19 -7 3 -15 15 -16 27 -3 16 1 22 10 19 7 -3 15 -15 16 -27z m902 -95 c-1 -19 -2 -19 -15 4 -20 35 -19 62 0 36 8 -11 15 -29 15 -40z m-1250 24 c0 -5 -7 -10 -15 -10 -8 0 -15 5 -15 10 0 6 7 10 15 10 8 0 15 -4 15 -10z m-83 -23 c-4 -14 -47 -23 -47 -9 0 13 7 17 30 19 13 1 20 -3 17 -10z m-303 -21 c-6 -15 -24 -23 -24 -11 0 8 24 34 28 30 1 -1 0 -10 -4 -19z m956 15 c0 -5 -7 -11 -15 -15 -9 -3 -15 0 -15 9 0 8 7 15 15 15 8 0 15 -4 15 -9z m-1811 -134 c6 -6 6 6 0 32 -9 41 -4 91 10 91 4 0 12 -21 17 -47 5 -27 14 -47 20 -46 19 3 109 -96 98 -107 -7 -7 -18 -2 -34 15 -13 14 -28 25 -34 25 -5 0 5 -16 24 -35 28 -29 31 -35 17 -41 -10 -3 -24 -4 -32 0 -8 3 -15 1 -15 -5 0 -5 8 -13 18 -16 20 -8 33 -24 26 -35 -10 -15 -32 -8 -37 13 -3 12 -10 18 -17 14 -15 -9 -57 31 -81 77 -27 52 -33 109 -18 154 l13 39 8 -59 c4 -33 12 -64 17 -69z m2251 98 c0 -21 -35 -36 -60 -27 -18 7 -19 10 -8 19 11 9 35 18 61 22 4 0 7 -6 7 -14z m-490 -4 c0 -12 -20 -25 -27 -18 -7 7 6 27 18 27 5 0 9 -4 9 -9z m-318 -66 c1 -30 2 -65 2 -77 1 -19 -8 -23 -69 -35 -38 -8 -75 -19 -82 -24 -7 -7 -14 -6 -19 3 -6 9 -10 6 -14 -11 -8 -37 -30 -38 -30 -2 0 16 -4 33 -10 36 -6 4 -10 -8 -10 -30 0 -22 -4 -34 -10 -30 -5 3 -10 19 -10 36 0 16 -4 29 -10 29 -5 0 -10 -16 -10 -35 0 -39 -6 -43 -26 -17 -13 16 -13 16 -14 0 0 -27 -19 -21 -31 9 -8 22 -12 24 -20 13 -8 -13 -10 -13 -19 0 -5 8 -15 15 -22 15 -8 0 -14 16 -16 44 -3 40 -1 43 17 38 12 -3 24 0 28 5 4 7 11 4 19 -7 12 -15 24 -17 93 -12 43 3 87 10 98 16 16 10 15 11 -7 9 -14 -1 -26 2 -27 7 -2 6 9 11 25 12 117 10 132 15 132 39 0 17 6 24 20 24 17 0 20 -7 22 -55z m-402 36 c0 -12 -20 -25 -27 -18 -7 7 6 27 18 27 5 0 9 -4 9 -9z m655 0 c19 -8 19 -8 -3 -20 -14 -7 -22 -8 -22 -1 0 5 -7 10 -16 10 -8 0 -12 5 -9 10 7 12 22 12 50 1z m-495 -21 c0 -5 -7 -10 -15 -10 -8 0 -15 5 -15 10 0 6 7 10 15 10 8 0 15 -4 15 -10z m65 0 c-3 -5 -13 -10 -21 -10 -8 0 -14 5 -14 10 0 6 9 10 21 10 11 0 17 -4 14 -10z m-660 -10 c9 -14 -55 -44 -68 -31 -7 7 0 15 24 25 19 9 35 15 36 16 1 0 4 -4 8 -10z m389 -12 c3 -13 6 -39 5 -58 l0 -35 -14 34 c-17 37 -20 81 -6 81 5 0 11 -10 15 -22z m151 12 c-3 -5 -13 -10 -21 -10 -8 0 -14 5 -14 10 0 6 9 10 21 10 11 0 17 -4 14 -10z m334 -42 c-1 -47 -2 -50 -10 -23 -7 26 -3 75 7 75 2 0 4 -24 3 -52z m-439 32 c0 -5 -7 -10 -15 -10 -8 0 -15 5 -15 10 0 6 7 10 15 10 8 0 15 -4 15 -10z m50 0 c0 -5 -7 -10 -15 -10 -8 0 -15 5 -15 10 0 6 7 10 15 10 8 0 15 -4 15 -10z m610 -10 c0 -5 -7 -10 -15 -10 -8 0 -15 5 -15 10 0 6 7 10 15 10 8 0 15 -4 15 -10z m287 -67 c3 -26 -2 -79 -11 -116 -9 -38 -16 -78 -16 -91 0 -30 -68 -109 -88 -101 -20 7 -48 -15 -31 -26 10 -6 10 -11 0 -23 -17 -21 -45 -21 -37 -1 3 8 2 15 -2 15 -14 0 -72 -40 -72 -50 0 -6 11 -3 25 6 26 17 42 14 31 -5 -4 -5 -28 -13 -54 -16 -26 -4 -69 -13 -97 -20 -49 -14 -155 -16 -155 -4 0 4 -17 9 -37 12 -21 3 -49 8 -62 12 -18 6 -22 5 -16 -4 15 -26 -52 18 -84 54 -33 38 -43 67 -14 44 15 -13 15 -12 5 8 -15 27 -16 115 -2 93 5 -8 10 -27 10 -42 0 -34 29 -108 41 -108 6 0 4 10 -2 23 l-12 22 23 -20 c23 -19 23 -19 -3 29 -31 56 -34 103 -11 152 22 46 27 37 12 -20 -9 -35 -9 -49 0 -58 8 -8 13 -1 18 32 10 63 38 89 102 94 29 2 56 7 59 10 4 3 29 6 57 6 44 0 54 4 88 37 29 28 38 33 38 20 0 -32 -29 -75 -55 -81 -33 -8 -32 -26 1 -26 21 0 24 -4 19 -20 -9 -28 10 -25 40 8 l26 27 -7 -29 c-5 -20 -3 -27 4 -22 6 3 13 19 17 35 8 36 35 64 35 35 -1 -11 -7 -37 -15 -59 -20 -54 -19 -62 4 -34 26 32 36 18 16 -21 -13 -24 -13 -31 -3 -28 7 2 24 36 38 74 21 57 26 64 28 41 2 -15 8 -25 13 -21 6 3 7 34 3 77 -6 70 -6 72 12 54 16 -14 20 -36 22 -121 2 -64 -1 -112 -7 -125 -19 -34 -6 -24 25 20 33 48 49 135 47 253 -2 72 -1 78 14 63 9 -8 18 -37 20 -64z m-772 57 c4 -6 -5 -10 -19 -10 -14 0 -26 5 -26 10 0 6 9 10 19 10 11 0 23 -4 26 -10z m-75 -10 c0 -5 -7 -10 -15 -10 -8 0 -15 5 -15 10 0 6 7 10 15 10 8 0 15 -4 15 -10z m-305 -31 c11 -34 64 -87 94 -94 17 -3 31 -14 34 -26 4 -15 14 -19 49 -19 34 0 50 -6 66 -23 36 -38 58 -140 30 -136 -29 5 -68 -14 -68 -32 0 -10 -4 -19 -9 -19 -5 0 -13 -9 -16 -20 -3 -11 -10 -20 -15 -20 -5 0 -23 -13 -40 -29 -23 -20 -46 -30 -83 -35 -106 -12 -113 -11 -178 52 -67 63 -129 157 -129 193 0 37 11 69 21 63 5 -3 9 -20 9 -38 0 -51 102 -226 131 -226 5 0 -3 16 -16 36 -28 41 -32 59 -11 51 8 -3 1 17 -16 49 -20 36 -28 65 -26 86 l3 33 15 -44 c20 -59 43 -68 34 -13 -3 22 -2 48 4 58 10 17 12 16 22 -11 17 -44 50 -61 50 -26 0 11 5 21 11 23 7 2 7 12 -1 33 -6 16 -12 51 -12 77 -2 64 32 105 47 57z m1616 -12 c-7 -18 -15 -25 -26 -21 -8 3 -12 10 -9 15 3 5 9 7 14 4 4 -3 10 5 13 17 4 12 9 20 12 16 3 -3 1 -17 -4 -31z m-295 -28 c24 -48 15 -79 -30 -102 -27 -14 -44 -33 -58 -64 -23 -53 -36 -143 -19 -143 6 0 11 9 11 19 0 11 5 23 10 26 7 4 9 -2 6 -17 -3 -12 -2 -39 3 -58 8 -32 9 -30 10 25 2 107 63 187 164 215 32 9 45 8 75 -7 44 -22 44 -36 0 -44 -21 -4 -25 -7 -11 -8 22 -1 53 -35 53 -58 0 -15 -66 -60 -95 -65 -33 -5 -33 42 1 69 l28 22 -28 7 c-53 13 -134 -75 -120 -131 4 -16 8 -43 10 -60 1 -16 3 -32 3 -34 1 -3 8 4 16 15 11 15 14 16 15 3 0 -19 -23 -69 -32 -69 -3 0 0 -24 8 -52 17 -64 19 -152 3 -143 -6 4 -8 22 -4 45 4 26 2 42 -9 52 -8 8 -17 36 -21 62 -4 25 -11 49 -15 51 -17 11 -21 -38 -9 -105 13 -69 23 -86 32 -52 3 9 5 1 6 -18 1 -28 8 -39 34 -55 19 -12 33 -30 35 -45 3 -25 3 -25 -22 5 -37 46 -38 26 -1 -22 24 -32 34 -39 39 -28 8 21 28 19 25 -2 -1 -10 -1 -27 0 -38 2 -19 2 -19 12 -2 6 11 9 32 5 48 -3 15 -1 31 4 34 6 4 10 -13 10 -42 0 -72 -12 -153 -21 -148 -12 8 -89 -6 -89 -16 0 -5 7 -9 15 -9 8 0 15 -5 15 -11 0 -7 -9 -9 -21 -6 -12 3 -45 -3 -73 -14 -28 -10 -58 -19 -66 -18 -10 0 -11 2 -2 6 25 10 11 19 -25 16 -30 -2 -33 -1 -14 5 14 4 26 12 28 18 6 17 -48 4 -54 -13 -4 -11 -24 -12 -97 -8 -50 3 -114 11 -142 17 -48 10 -52 9 -77 -16 -14 -14 -34 -26 -44 -26 -20 0 -77 -47 -85 -70 -4 -14 -28 -6 -28 11 0 5 9 17 20 26 25 22 25 33 0 33 -12 0 -29 -15 -45 -40 -20 -32 -29 -38 -43 -31 -9 5 -26 13 -37 17 -18 6 -18 8 -2 11 19 5 19 5 11 27 -9 25 -19 19 -33 -19 l-13 -36 -19 26 c-11 13 -18 29 -14 34 3 5 1 12 -5 16 -6 4 -7 12 -4 18 5 9 4 9 -5 1 -7 -6 -15 -35 -18 -65 -4 -46 -2 -57 16 -73 24 -22 26 -43 6 -70 -8 -11 -15 -31 -15 -44 0 -19 4 -22 20 -17 12 4 27 2 34 -5 10 -7 27 -8 58 -1 23 5 55 12 70 16 19 3 26 10 22 20 -8 19 25 33 36 15 4 -7 13 -9 20 -5 17 10 59 -14 94 -53 37 -43 109 -92 133 -92 11 0 24 -5 30 -11 14 -14 73 -7 143 19 58 22 77 42 38 42 -34 0 -52 15 -44 36 6 16 9 16 17 4 8 -12 15 -9 43 21 23 24 38 34 47 28 20 -12 30 -1 23 27 -3 13 -2 24 4 24 5 0 12 -9 15 -20 3 -12 14 -20 26 -20 31 0 81 -74 81 -120 0 -34 -5 -41 -60 -79 -34 -24 -77 -47 -98 -53 -20 -6 -40 -15 -43 -20 -4 -6 -10 -1 -14 11 -7 23 -26 27 -56 10 -41 -21 -40 -2 1 25 55 36 46 44 -13 11 -25 -14 -65 -30 -89 -34 -39 -8 -40 -9 -10 -10 31 -1 42 -14 22 -26 -6 -4 -8 -11 -5 -16 9 -14 41 -11 55 6 7 8 16 15 21 15 5 0 9 -7 9 -15 0 -8 5 -15 10 -15 6 0 10 9 10 19 0 11 5 23 11 27 14 9 30 -16 25 -38 -2 -10 0 -18 5 -18 5 0 9 -7 9 -16 0 -10 6 -14 15 -10 8 3 15 2 15 -3 0 -13 -111 -120 -131 -126 -10 -4 -19 -11 -19 -16 0 -5 -13 -9 -30 -9 -30 0 -41 -14 -17 -23 6 -3 2 -6 -10 -6 -12 -1 -25 -6 -28 -11 -9 -15 -25 -12 -25 5 0 16 -38 29 -67 23 -11 -2 -17 -11 -15 -23 2 -11 6 -42 9 -68 4 -34 9 -45 16 -38 22 22 29 10 24 -41 l-6 -53 24 50 c13 28 24 46 24 41 2 -21 -33 -116 -43 -116 -14 0 -46 -31 -46 -46 0 -7 8 -10 19 -7 24 6 34 -29 19 -66 l-12 -26 -4 24 -4 24 -12 -24 c-6 -13 -19 -24 -28 -24 -10 0 -23 -6 -30 -13 -16 -16 -28 -15 -28 3 0 8 -4 15 -10 15 -5 0 -16 15 -24 34 -21 50 -50 66 -124 66 -80 0 -111 -17 -144 -77 -23 -42 -26 -57 -22 -113 l4 -65 -14 43 c-18 56 -61 111 -98 127 -17 6 -50 11 -74 10 -37 -1 -44 1 -44 17 0 15 -6 17 -36 14 -35 -5 -94 -48 -94 -70 0 -5 11 1 25 14 32 31 46 17 15 -15 -24 -26 -65 -31 -120 -16 -21 6 -22 8 -7 14 9 3 17 16 17 27 0 23 -17 25 -90 10 -28 -5 -49 -5 -55 1 -12 12 11 29 42 29 28 0 38 17 22 36 -6 8 -9 18 -5 22 4 4 19 -6 32 -23 13 -16 24 -25 24 -18 0 6 -11 25 -25 42 -22 25 -31 29 -63 25 -31 -3 -33 -2 -12 5 19 7 9 9 -44 10 -54 1 -67 4 -63 15 3 8 -2 16 -15 19 -11 3 -17 10 -14 16 4 5 -3 12 -14 16 -29 9 -25 28 5 23 14 -3 25 -1 25 3 0 5 -10 9 -22 9 -23 0 -56 16 -48 22 3 2 16 9 30 15 18 8 20 12 8 12 -11 1 -15 6 -12 16 5 11 -1 15 -21 15 -37 0 -22 18 22 26 33 6 35 8 15 15 -40 15 -20 39 33 39 13 0 27 4 30 10 4 6 -15 8 -52 4 -49 -4 -62 -2 -83 15 l-25 21 33 -6 c21 -4 32 -3 32 5 0 6 -11 11 -25 11 -32 0 -34 30 -2 31 13 1 4 6 -22 13 -55 14 -66 36 -19 37 l33 1 -32 9 c-32 9 -45 29 -20 29 15 1 -84 50 -100 50 -7 0 -13 4 -13 8 0 21 16 20 55 -3 31 -17 49 -22 68 -17 40 10 34 23 -20 44 -26 10 -56 28 -65 40 -14 18 -21 21 -35 12 -20 -11 -53 -7 -53 7 0 5 6 9 13 9 6 0 4 5 -5 11 -25 14 -22 26 12 44 35 18 44 19 34 3 -5 -7 0 -9 14 -6 12 3 23 1 25 -5 3 -9 67 -31 130 -44 32 -6 36 -33 5 -34 l-23 0 24 -12 c19 -9 25 -8 35 4 6 9 28 19 49 23 20 4 37 12 37 17 0 6 -10 8 -22 4 -22 -6 -22 -5 -3 6 51 30 155 114 155 126 0 15 39 37 48 27 4 -4 1 -9 -5 -11 -51 -18 80 -29 135 -12 30 10 35 8 63 -22 17 -18 38 -50 47 -71 10 -22 24 -38 33 -38 13 0 15 9 11 51 -5 56 4 69 50 69 34 0 58 9 58 22 0 6 -23 9 -60 6 -33 -2 -60 0 -60 5 0 5 -6 7 -14 4 -8 -3 -22 3 -32 14 -17 18 -17 20 2 34 12 10 31 13 52 10 19 -4 32 -2 32 5 0 5 -6 10 -12 10 -10 0 -10 3 0 9 10 6 6 11 -17 19 -38 13 -45 39 -45 157 1 95 21 215 38 227 6 4 7 10 3 14 -3 4 -13 1 -22 -6 -26 -22 -38 32 -31 144 3 54 8 101 11 104 2 3 35 11 72 18 84 16 126 5 166 -42 34 -40 84 -58 142 -50 45 7 55 -1 55 -46 0 -43 -34 -128 -57 -143 -26 -18 -30 -35 -8 -35 8 0 15 4 15 8 0 5 11 14 24 20 14 6 30 27 37 46 10 28 18 36 39 36 24 1 24 1 6 15 -24 18 -15 30 12 16 31 -16 47 -14 32 4 -6 8 -9 23 -5 35 6 18 12 20 38 15 30 -6 31 -5 13 9 -25 20 -13 32 18 18 33 -15 40 -3 14 25 -12 13 -18 23 -13 23 4 0 14 -8 21 -17 18 -25 30 -8 15 21 -8 13 -11 30 -8 38 4 9 8 6 12 -9 4 -13 11 -23 15 -23 5 0 15 -3 24 -6 12 -5 16 1 16 22 l0 29 18 -22 c9 -13 32 -27 51 -33 28 -8 37 -6 48 8 10 12 16 14 19 5 12 -28 26 -12 20 22 -4 22 -3 35 4 35 5 0 11 -17 11 -37 1 -24 3 -29 6 -15 7 35 23 26 24 -15 2 -31 3 -33 6 -10 6 41 23 32 23 -12 0 -22 5 -43 10 -46 6 -3 10 -1 10 4 0 22 16 10 27 -19 8 -21 16 -28 27 -24 18 7 22 39 6 49 -5 3 -10 19 -10 35 0 16 -4 32 -10 35 -5 3 -10 -1 -10 -9 0 -19 -16 -21 -26 -4 -11 17 -25 93 -31 163 -4 50 1 74 26 143 17 46 31 94 31 107 0 26 58 97 72 89 4 -3 15 -19 24 -35z m-1813 -10 c8 -13 1 -27 -38 -68 -42 -44 -54 -51 -87 -51 -37 0 -38 1 -38 34 0 28 7 40 34 61 58 44 110 54 129 24z m2057 -2 c0 -12 -40 -38 -58 -37 -6 1 49 50 56 50 1 0 2 -6 2 -13z m-955 -36 c15 -6 9 -9 -27 -12 -34 -3 -48 0 -48 8 0 14 43 16 75 4z m-1294 -104 c-8 -8 -14 -7 -23 2 -11 10 -9 15 7 27 18 13 20 13 23 -2 2 -9 -1 -21 -7 -27z m234 -30 c14 -24 25 -56 25 -71 0 -23 -3 -26 -24 -20 -13 3 -27 1 -30 -5 -4 -6 -16 -11 -27 -11 -39 0 -53 96 -19 130 30 30 46 25 75 -23z m757 -2 c3 -14 1 -25 -3 -25 -5 0 -9 11 -9 25 0 14 2 25 4 25 2 0 6 -11 8 -25z m1298 -16 c0 -16 -4 -29 -10 -29 -5 0 -10 16 -10 36 0 21 4 33 10 29 6 -3 10 -19 10 -36z m-2220 -44 c0 -16 -4 -23 -13 -19 -16 6 -32 -12 -40 -46 -5 -18 0 -31 18 -50 20 -21 24 -33 19 -57 l-6 -31 -48 34 c-45 32 -60 56 -60 97 0 17 28 48 43 47 4 -1 22 10 38 24 38 32 49 33 49 1z m370 -18 c0 -16 -18 3 -23 25 -6 22 -5 22 8 4 8 -11 15 -24 15 -29z m-10 -22 c20 -24 6 -28 -15 -5 -10 11 -13 20 -8 20 6 0 16 -7 23 -15z m1832 -7 c-15 -15 -16 -32 -1 -23 14 9 61 -4 54 -15 -3 -5 0 -18 7 -30 11 -17 10 -25 -2 -47 -12 -21 -24 -28 -54 -31 -34 -2 -37 0 -34 20 2 13 10 23 18 23 41 1 46 36 8 56 -27 15 -59 -8 -93 -67 l-28 -48 17 -90 c16 -87 14 -162 -5 -150 -5 3 -9 28 -9 56 0 29 -4 65 -9 82 -6 17 -15 57 -22 90 -12 53 -11 62 7 95 12 23 37 45 69 63 53 28 99 38 77 16z m-2032 -11 c0 -8 -9 -22 -20 -32 -22 -20 -27 -7 -10 26 12 22 30 25 30 6z m2221 -28 c7 -14 9 -41 5 -73 -4 -28 -9 -72 -12 -97 -5 -32 -1 -55 10 -77 18 -35 8 -44 -12 -11 -10 16 -16 18 -27 9 -10 -8 -14 -8 -18 2 -2 7 -8 10 -12 6 -12 -11 29 -72 50 -77 17 -3 18 -2 5 14 -13 16 -13 18 -1 13 46 -15 68 -90 71 -243 2 -60 4 -74 11 -55 5 16 7 -18 3 -90 -3 -63 -9 -119 -15 -125 -5 -5 -9 3 -9 23 0 24 -4 30 -15 26 -8 -4 -15 -1 -15 5 0 7 7 14 15 17 18 7 20 25 3 22 -9 -2 -15 18 -19 62 -3 36 -6 53 -7 38 -1 -16 -7 -28 -13 -28 -8 0 -8 -4 -2 -12 13 -17 15 -76 2 -83 -5 -4 -9 5 -9 18 0 20 -4 24 -20 20 -11 -3 -20 -9 -20 -14 0 -5 -4 -9 -10 -9 -11 0 -14 33 -3 44 4 4 6 24 5 44 -2 20 4 60 12 87 21 67 21 159 0 179 -23 24 -61 20 -79 -8 -14 -21 -15 -33 -4 -85 6 -34 16 -64 20 -67 13 -8 11 -56 -5 -119 -18 -67 -24 -78 -41 -71 -8 3 -15 -7 -19 -26 -7 -33 -23 -58 -38 -58 -5 0 -4 9 2 19 14 28 12 41 -5 35 -11 -5 -15 1 -15 20 0 14 -4 26 -10 26 -5 0 -10 9 -10 21 0 13 4 18 11 13 23 -14 -1 51 -26 71 -30 25 -35 94 -9 115 13 12 14 8 8 -37 -4 -33 -2 -53 5 -57 7 -5 11 4 11 24 0 35 19 32 21 -3 1 -20 2 -21 6 -2 3 11 8 22 12 25 7 5 34 134 46 220 4 25 10 65 15 90 l7 45 2 -45 c2 -61 21 -33 21 32 0 35 6 54 26 78 17 19 28 47 32 75 5 52 15 56 36 18 8 -16 15 -22 16 -15 0 7 -5 22 -10 33 -7 12 -7 19 -1 19 6 0 15 -10 22 -21z m-1951 -24 c5 -14 22 -30 37 -36 17 -7 23 -13 15 -16 -17 -6 -92 46 -92 63 0 24 30 15 40 -11z m1590 -24 c-9 -32 0 -111 19 -175 17 -58 22 -88 13 -82 -6 3 -13 18 -17 33 -3 16 -12 35 -19 43 -24 28 -34 95 -22 147 11 48 25 78 32 71 2 -3 -1 -19 -6 -37z m-1870 -11 c-6 -12 -14 -19 -17 -17 -2 3 1 15 7 27 6 12 14 19 17 17 2 -3 -1 -15 -7 -27z m120 -1 c-7 -11 -14 -19 -16 -16 -7 7 7 37 17 37 6 0 5 -9 -1 -21z m1340 -25 c0 -20 -4 -33 -10 -29 -11 7 -9 65 3 65 4 0 7 -16 7 -36z m-1171 -51 l14 -61 51 -16 c53 -17 96 -50 96 -73 0 -16 -5 -16 -31 -3 -10 6 -19 7 -19 2 0 -9 43 -32 60 -32 5 0 7 7 3 16 -4 12 -2 15 8 12 8 -2 21 -25 29 -51 8 -26 20 -47 25 -47 21 -1 45 -71 45 -131 0 -50 3 -59 16 -57 10 2 19 -3 21 -9 3 -8 -5 -13 -21 -13 -21 0 -26 5 -27 28 -1 16 -3 20 -6 10 -2 -10 -12 -19 -21 -19 -15 -1 -15 -2 1 -6 9 -2 17 -8 17 -13 0 -16 -20 -21 -41 -10 -14 8 -24 9 -31 2 -7 -7 3 -17 31 -31 22 -12 41 -28 41 -36 0 -17 -9 -19 -29 -6 -10 6 -21 1 -38 -17 l-24 -26 -57 21 c-31 12 -65 24 -74 28 -14 6 -18 2 -18 -15 0 -18 3 -20 13 -11 15 12 37 -3 37 -27 0 -11 3 -12 14 -3 11 10 16 8 24 -6 6 -10 19 -18 29 -18 32 0 27 -38 -9 -60 -96 -61 -140 -72 -213 -56 -55 13 -83 31 -46 31 18 0 19 3 11 26 -14 35 -13 44 5 44 8 0 17 12 21 28 10 45 13 52 25 52 6 0 9 -7 5 -15 -3 -8 -1 -15 4 -15 6 0 10 9 10 19 0 11 6 22 13 25 17 8 -122 -1 -152 -10 -21 -6 -22 -5 -14 11 6 9 34 26 64 36 66 24 83 24 75 3 -5 -12 -2 -15 10 -10 8 3 22 6 29 6 8 0 20 6 27 14 8 8 23 16 34 19 10 2 -15 6 -56 8 l-75 3 75 6 c68 6 64 6 -45 7 -74 0 -108 -2 -90 -7 26 -7 22 -8 -22 -9 -49 -1 -71 11 -40 22 6 2 -4 11 -23 20 l-35 15 30 2 c17 1 39 5 50 10 16 7 13 9 -15 9 -51 1 -68 21 -32 37 26 12 24 12 -22 11 -57 -2 -77 19 -27 29 17 4 33 10 36 14 2 4 -4 30 -15 58 -17 44 -17 52 -5 62 8 7 16 24 16 39 l2 26 4 -25 c7 -34 22 -50 47 -49 21 0 21 0 -1 9 -29 12 -32 45 -3 36 46 -14 64 -17 54 -9 -15 11 -26 73 -14 73 6 0 10 -7 10 -15 0 -8 7 -15 15 -15 13 0 14 30 0 76 -2 5 6 21 16 35 l19 24 0 -38 c0 -44 25 -88 46 -80 18 7 18 23 0 23 -19 0 -27 70 -10 94 15 23 21 13 26 -43 2 -19 9 -37 17 -39 14 -5 12 22 -6 97 -4 17 -2 22 8 19 8 -2 20 -32 28 -65z m-427 22 c-2 -14 -6 -25 -8 -25 -2 0 -4 11 -4 25 0 14 4 25 9 25 4 0 6 -11 3 -25z m-125 -21 c13 -17 12 -19 -14 -22 -15 -2 -47 -12 -70 -23 -24 -10 -45 -19 -48 -19 -15 0 -2 44 19 65 29 29 91 28 113 -1z m1507 -6 c-1 -13 -3 -25 -3 -27 -1 -2 -9 3 -18 10 -15 13 -16 12 -11 -8 8 -31 0 -29 -12 3 -12 32 -6 44 24 44 18 0 22 -5 20 -22z m-906 -17 c3 -16 -1 -22 -10 -19 -7 3 -15 15 -16 27 -3 16 1 22 10 19 7 -3 15 -15 16 -27z m42 -27 c0 -14 -4 -23 -10 -19 -5 3 -10 15 -10 26 0 10 5 19 10 19 6 0 10 -12 10 -26z m204 -6 c3 -13 6 -40 6 -60 0 -31 4 -38 19 -38 10 0 22 -7 25 -16 11 -28 6 -34 -14 -22 -14 9 -23 10 -28 3 -16 -23 -40 -15 -51 16 -15 45 -14 73 7 108 20 37 28 38 36 9z m-604 -44 c0 -34 -4 -53 -10 -49 -11 7 -13 48 -4 83 10 36 14 26 14 -34z m460 30 c0 -16 -26 -19 -35 -4 -3 6 -4 14 0 20 8 13 35 1 35 -16z m34 -40 c10 -25 -1 -29 -14 -5 -6 12 -7 21 -1 21 5 0 12 -7 15 -16z m1555 -96 c1 -43 -17 -33 -27 15 l-10 42 -1 -41 c-1 -49 -19 -104 -33 -104 -10 0 -4 111 9 154 4 15 7 16 14 5 6 -10 9 -7 10 11 0 22 3 20 19 -15 10 -22 19 -52 19 -67z m-158 36 c-3 -44 -7 -52 -21 -38 -13 13 0 86 14 81 6 -2 9 -20 7 -43z m-1877 -19 c5 -15 -12 -55 -24 -55 -5 0 -6 42 -2 63 3 13 20 8 26 -8z m-433 -13 c-11 -21 -41 -48 -41 -38 0 4 7 18 16 31 19 29 40 34 25 7z m30 -19 c-5 -10 -22 -29 -37 -43 -30 -26 -20 -8 20 38 23 26 30 28 17 5z m2309 -5 c0 -16 -3 -19 -11 -11 -6 6 -8 16 -5 22 11 17 16 13 16 -11z m-1310 -30 c0 -16 -3 -19 -11 -11 -6 6 -8 16 -5 22 11 17 16 13 16 -11z m-653 -15 c5 -13 -25 -26 -38 -17 -6 3 -5 11 2 20 13 16 31 14 36 -3z m63 -4 c10 -18 9 -20 -12 -17 -12 2 -24 11 -26 21 -5 24 25 22 38 -4z m604 -70 c7 -59 3 -80 -11 -66 -9 10 -11 127 -3 127 4 0 11 -27 14 -61z m-659 21 c6 -10 -56 -43 -64 -34 -7 7 31 44 45 44 7 0 16 -5 19 -10z m695 -15 c0 -8 -4 -15 -10 -15 -5 0 -10 7 -10 15 0 8 5 15 10 15 6 0 10 -7 10 -15z m-690 -40 c0 -8 -4 -15 -10 -15 -5 0 -10 7 -10 15 0 8 5 15 10 15 6 0 10 -7 10 -15z m696 -21 c-5 -13 -10 -14 -18 -6 -6 6 -8 18 -4 28 5 13 10 14 18 6 6 -6 8 -18 4 -28z m-1103 2 c3 -8 -6 -24 -19 -37 -21 -20 -27 -21 -34 -9 -6 10 -3 22 12 37 25 27 34 28 41 9z m103 -43 c-11 -11 -19 6 -11 24 8 17 8 17 12 0 3 -10 2 -21 -1 -24z m1004 3 c0 -8 -4 -17 -9 -21 -12 -7 -24 12 -16 25 9 15 25 12 25 -4z m-1170 -20 c0 -21 -47 -73 -56 -63 -5 4 -3 16 4 25 7 9 15 25 18 35 8 21 34 23 34 3z m60 -13 c-1 -16 -114 -126 -118 -115 -4 14 88 122 106 122 6 0 12 -3 12 -7z m2421 -25 c8 -14 8 -23 0 -31 -7 -7 -12 -2 -17 17 -3 14 -10 26 -16 26 -5 0 -7 -4 -3 -9 3 -5 1 -12 -4 -15 -13 -8 -24 11 -17 29 7 19 44 8 57 -17z m-2315 -25 c-11 -11 -19 6 -11 24 8 17 8 17 12 0 3 -10 2 -21 -1 -24z m1868 10 c45 -7 78 -51 74 -98 -3 -24 -13 -35 -58 -60 -31 -17 -61 -30 -68 -27 -7 2 -19 -2 -27 -8 -12 -10 -16 -9 -21 4 -8 22 -17 20 -29 -6 -15 -33 -29 -28 -34 12 -3 30 -5 32 -10 12 -9 -34 -26 -22 -23 16 2 21 -4 43 -18 61 -24 35 -25 41 -5 41 8 0 15 5 15 10 0 6 -5 10 -12 10 -26 0 3 12 63 25 74 16 100 17 153 8z m361 -48 c22 -8 41 -15 42 -15 1 0 0 7 -3 15 -7 18 7 20 24 3 17 -17 15 -67 -2 -74 -8 -3 -12 -12 -9 -20 3 -8 0 -14 -6 -14 -6 0 -11 5 -11 10 0 15 -61 50 -87 50 -13 0 -23 5 -23 11 0 6 -14 9 -31 7 -39 -4 -36 13 5 28 42 16 55 15 101 -1z m-257 -4 c15 -9 13 -42 -3 -41 -11 0 -27 50 -17 50 4 0 13 -4 20 -9z m-1437 -44 c-13 -13 -26 -3 -16 12 3 6 11 8 17 5 6 -4 6 -10 -1 -17z m327 5 c6 -18 -15 -14 -22 4 -4 10 -1 14 6 12 6 -2 14 -10 16 -16z m-1069 -68 c-22 -27 -34 2 -13 33 19 28 19 28 22 5 2 -13 -2 -30 -9 -38z m1691 35 c0 -11 -4 -17 -10 -14 -5 3 -10 13 -10 21 0 8 5 14 10 14 6 0 10 -9 10 -21z m1108 10 c-2 -6 -8 -11 -13 -11 -6 0 -16 -4 -22 -10 -10 -8 -13 -6 -13 6 0 10 4 15 9 11 5 -3 12 -1 16 5 8 13 28 13 23 -1z m156 -16 c2 -10 7 -32 11 -50 3 -17 13 -37 21 -44 13 -10 13 -15 0 -34 -13 -20 -13 -24 3 -39 9 -9 32 -21 49 -27 40 -14 41 -36 5 -89 l-26 -41 23 -24 c13 -14 22 -27 19 -29 -16 -13 -52 -26 -76 -26 -32 0 -79 -42 -85 -75 -4 -25 25 -22 60 6 35 27 62 25 62 -5 0 -18 6 -26 22 -28 35 -5 32 -26 -7 -42 -28 -12 -35 -20 -31 -34 7 -22 -28 -42 -74 -42 -19 0 -41 -12 -64 -34 -43 -40 -84 -51 -108 -29 -16 15 -20 15 -38 -2 -18 -16 -20 -16 -26 -1 -11 29 4 46 40 46 19 0 37 4 41 9 3 5 22 15 43 22 20 7 45 21 55 33 15 17 22 19 48 9 16 -6 27 -7 23 -2 -3 6 2 22 12 37 l17 27 -24 -16 c-39 -26 -75 -31 -90 -13 -11 14 -13 14 -21 0 -8 -15 -38 -23 -38 -11 0 13 30 62 44 74 8 7 18 26 21 42 4 16 15 34 26 39 23 13 34 34 43 84 7 36 6 38 -8 27 -14 -11 -16 -11 -16 3 0 10 -4 14 -10 11 -5 -3 -10 3 -10 14 0 11 5 23 10 26 6 3 10 -2 10 -12 1 -16 2 -16 10 -2 5 8 6 26 3 38 l-6 22 -23 -22 c-21 -19 -24 -20 -24 -5 0 9 11 43 25 76 29 69 33 115 4 53 -11 -24 -26 -43 -35 -43 -21 0 -34 -43 -33 -113 0 -81 -14 -163 -29 -160 -11 3 -16 -19 -26 -105 -4 -43 -24 -75 -58 -93 -14 -8 -21 -1 -37 36 -11 25 -25 45 -30 45 -6 0 -11 10 -11 22 0 21 -1 21 -13 4 -11 -15 -17 -17 -35 -7 -12 6 -22 15 -22 20 0 4 -10 7 -22 7 -17 -1 -24 6 -28 29 -5 25 -7 27 -13 11 -7 -18 -8 -18 -30 3 -30 28 -39 27 -31 -4 7 -30 -10 -33 -44 -9 -13 9 -26 13 -29 10 -12 -12 -33 17 -33 45 0 63 94 104 153 65 18 -13 37 -17 57 -13 27 6 31 3 49 -37 20 -47 52 -66 76 -46 22 18 18 36 -16 75 -26 30 -30 40 -25 69 4 19 13 39 21 46 8 7 15 21 15 31 0 10 5 30 12 44 10 23 16 25 49 20 37 -6 38 -6 49 34 13 50 37 66 64 43 17 -16 19 -16 30 2 39 64 70 83 80 49z m-2250 -9 c8 -22 -4 -40 -15 -23 -11 18 -11 39 0 39 5 0 12 -7 15 -16z m1156 -6 c0 -24 -16 -56 -23 -48 -3 3 -2 20 0 38 6 36 23 44 23 10z m970 1 c0 -5 -7 -9 -15 -9 -9 0 -12 6 -9 15 6 15 24 11 24 -6z m-197 -19 c-7 -25 -22 -35 -34 -23 -10 10 18 56 31 48 4 -3 6 -14 3 -25z m-180 -12 c14 -25 15 -33 5 -39 -8 -5 -11 -23 -9 -45 l3 -37 -51 54 c-27 30 -50 59 -51 65 0 20 35 12 64 -15 l28 -26 -15 31 c-15 28 -14 44 2 44 3 0 14 -14 24 -32z m-2467 -73 c-7 -26 -36 -35 -36 -11 0 16 30 50 37 42 3 -3 3 -17 -1 -31z m1664 26 c0 -14 -18 -23 -30 -16 -6 4 -8 11 -5 16 8 12 35 12 35 0z m45 -1 c-3 -5 -13 -10 -21 -10 -8 0 -14 5 -14 10 0 6 9 10 21 10 11 0 17 -4 14 -10z m1161 -91 c-13 -32 -14 -32 -15 -8 -1 14 4 30 11 37 19 19 20 7 4 -29z m-2866 4 c0 -23 -17 -49 -26 -41 -9 10 4 58 16 58 6 0 10 -8 10 -17z m2569 -37 c-14 -15 -22 0 -13 26 7 22 7 22 14 3 4 -11 4 -24 -1 -29z m-2578 -49 c-8 -8 -11 -7 -11 4 0 20 13 34 18 19 3 -7 -1 -17 -7 -23z m315 11 c4 -6 2 -14 -4 -16 -14 -4 -16 -64 -3 -77 6 -6 12 -32 16 -59 3 -27 11 -56 18 -64 10 -13 8 -14 -13 -7 -24 7 -24 6 8 -27 44 -47 44 -80 -1 -40 -19 17 -20 16 -7 -7 9 -18 9 -25 0 -31 -9 -6 -9 -10 2 -16 25 -15 40 -52 29 -72 -6 -11 -5 -34 4 -67 8 -34 9 -54 3 -62 -17 -21 -28 -15 -43 20 -8 17 -14 26 -15 20 0 -7 -7 -13 -16 -13 -11 0 -14 -6 -9 -20 10 -31 -11 -23 -25 9 -6 16 -20 37 -30 46 -18 16 -19 15 -15 -26 l4 -44 -16 30 c-14 27 -17 28 -23 11 -4 -14 -9 -16 -14 -8 -9 15 -46 16 -46 2 0 -5 -7 -10 -15 -10 -8 0 -15 -4 -15 -10 0 -5 11 -10 25 -10 16 0 25 -6 25 -15 0 -11 11 -15 40 -15 29 0 40 -4 40 -15 0 -8 -4 -15 -8 -15 -5 0 -14 -11 -20 -24 -10 -23 -13 -24 -44 -13 -18 7 -43 22 -55 34 -12 13 -26 23 -30 23 -15 1 -64 58 -55 64 6 3 8 15 5 26 -4 16 0 20 21 20 16 0 26 5 26 15 0 10 10 15 34 15 47 0 69 9 57 24 -6 7 -8 22 -4 34 4 18 12 22 48 22 41 0 44 2 50 32 7 28 3 36 -28 63 -31 26 -34 33 -24 50 7 11 18 24 25 28 18 12 15 24 -10 31 -18 4 -20 8 -11 17 8 8 9 18 2 30 -7 14 -5 21 11 29 11 6 20 18 20 26 0 11 6 13 20 9 14 -5 20 -2 20 10 0 21 18 55 30 55 5 0 12 -5 16 -12z m64 -58 c11 0 40 -58 40 -80 0 -24 11 -32 28 -18 13 11 14 8 7 -22 -7 -31 -6 -33 9 -21 25 21 31 5 12 -35 -12 -26 -14 -40 -6 -49 7 -9 2 -22 -19 -49 -16 -20 -31 -33 -34 -29 -3 4 -10 35 -17 68 -7 33 -19 64 -27 68 -10 6 -12 18 -8 38 4 18 3 29 -4 29 -6 0 -11 7 -11 15 0 9 -9 34 -21 56 -22 44 -21 46 13 63 20 11 23 9 26 -11 2 -13 7 -23 12 -23z m-370 -11 c0 -11 -4 -17 -10 -14 -5 3 -10 13 -10 21 0 8 5 14 10 14 6 0 10 -9 10 -21z m2920 -4 c0 -14 -4 -25 -10 -25 -11 0 -14 33 -3 43 11 11 13 8 13 -18z m-2912 -52 c-2 -10 -11 -19 -21 -21 -16 -3 -17 -1 -7 17 13 25 33 28 28 4z m3499 -21 c24 -19 33 -39 18 -42 -5 -1 -16 -6 -22 -12 -7 -6 -13 -7 -13 -4 0 4 -9 2 -20 -4 -23 -12 -28 -45 -5 -36 39 14 151 -50 186 -108 34 -55 20 -52 -37 7 -56 59 -103 87 -147 87 -35 0 -38 9 -17 51 11 21 20 47 20 59 0 24 8 25 37 2z m-3508 -53 c-23 -14 -31 2 -12 23 16 18 18 19 21 3 2 -10 -2 -21 -9 -26z m3424 20 c10 -37 -4 -86 -27 -97 -19 -8 -24 -5 -40 21 -16 29 -16 32 1 64 21 39 57 45 66 12z m-979 -28 c13 -6 31 -23 38 -38 12 -25 19 -28 56 -25 24 1 42 -2 42 -8 0 -5 -4 -10 -10 -10 -5 0 -10 -7 -10 -15 0 -11 8 -13 31 -8 21 4 34 1 40 -8 7 -11 9 -11 9 -1 0 7 5 10 10 7 6 -3 10 -21 10 -40 0 -31 -3 -35 -36 -41 -21 -4 -41 -16 -51 -30 -8 -13 -18 -24 -22 -24 -12 0 -29 58 -24 84 6 27 -5 34 -24 15 -22 -22 -57 -5 -76 36 -11 22 -25 47 -33 55 -16 18 -8 60 12 60 7 0 24 -4 38 -9z m-3024 -23 c1 -13 7 -34 15 -48 21 -37 18 -50 -13 -50 -41 0 -99 -35 -153 -93 -51 -55 -64 -53 -26 4 33 49 97 90 151 96 25 3 46 9 46 13 0 14 -26 30 -58 36 -37 8 -41 27 -10 48 31 22 48 20 48 -6z m1274 -10 c-3 -5 -12 -4 -20 3 -7 6 -11 15 -8 21 3 5 12 4 20 -3 7 -6 11 -15 8 -21z m-1161 -26 c18 -30 18 -34 3 -51 -9 -10 -16 -23 -16 -29 0 -34 -47 3 -54 43 -15 78 29 102 67 37z m2988 25 c-1 -12 -15 -9 -19 4 -3 6 1 10 8 8 6 -3 11 -8 11 -12z m829 -49 c0 -19 -2 -20 -10 -8 -13 19 -13 30 0 30 6 0 10 -10 10 -22z m-2980 -43 c0 -8 -4 -15 -10 -15 -5 0 -10 7 -10 15 0 8 5 15 10 15 6 0 10 -7 10 -15z m175 5 c10 16 28 12 21 -6 -5 -13 -1 -15 18 -10 20 5 23 3 19 -14 -7 -26 8 -26 31 1 l18 21 14 -21 c11 -15 12 -26 4 -40 -14 -28 -14 -29 20 -36 23 -5 32 -14 36 -35 4 -17 21 -39 45 -56 43 -32 48 -44 19 -44 -10 0 -35 -7 -54 -16 -41 -20 -78 -13 -113 22 -24 25 -25 25 -18 2 4 -13 13 -33 21 -45 19 -30 18 -53 -3 -53 -21 0 -63 39 -63 59 0 8 -10 25 -21 38 -20 20 -20 23 -5 29 9 3 26 4 37 1 14 -4 19 -2 15 8 -7 19 19 26 65 19 47 -8 51 3 8 18 -29 10 -31 13 -25 50 4 26 3 37 -4 33 -5 -3 -10 -22 -10 -40 0 -37 -28 -62 -57 -51 -12 5 -14 16 -9 56 4 32 3 50 -4 50 -5 0 -10 -23 -11 -52 0 -39 -3 -48 -9 -33 -7 17 -9 16 -10 -10 -1 -28 -2 -29 -15 -11 -24 31 -30 122 -10 152 13 20 19 23 30 14 9 -8 15 -8 20 0z m-986 -17 c0 -5 -4 -17 -9 -28 -8 -18 -9 -17 -9 8 -1 15 4 27 9 27 6 0 10 -3 9 -7z m2822 -10 c35 -21 40 -33 30 -70 -5 -19 -19 -34 -43 -45 -33 -16 -40 -16 -72 -3 -43 18 -74 65 -43 65 6 0 25 16 40 35 31 39 46 42 88 18z m979 -24 c-17 -31 -3 -36 25 -9 27 25 35 12 9 -14 -32 -33 -73 -11 -50 27 15 24 29 21 16 -4z m-2901 -8 c14 -25 30 -131 21 -136 -7 -4 -12 12 -39 118 -10 39 1 50 18 18z m-39 -64 c0 -10 5 -15 10 -12 10 6 30 -34 30 -61 0 -27 -20 -4 -21 24 l-1 27 -7 -25 c-7 -23 -9 -21 -20 20 -25 91 -24 88 -7 66 9 -11 16 -28 16 -39z m2257 28 c1 -5 -2 -17 -8 -25 -8 -11 -12 -12 -16 -2 -8 21 -24 13 -34 -18 -12 -32 -29 -41 -29 -14 0 29 41 75 63 72 11 -2 22 -7 24 -13z m-471 -22 c14 -21 19 -46 19 -100 0 -74 -8 -93 -19 -49 -4 18 -15 26 -38 31 -58 12 -65 15 -76 41 -16 34 -15 45 3 38 11 -5 15 1 15 18 0 54 65 67 96 21z m-2678 -10 c-4 22 -3 25 8 16 8 -6 14 -20 14 -30 0 -27 -45 -25 -64 3 -26 37 -18 44 15 12 l32 -29 -5 28z m3862 12 c-1 -5 -9 -25 -18 -44 -13 -27 -24 -34 -49 -36 -40 -3 -48 14 -27 59 15 30 21 33 55 32 22 0 39 -5 39 -11z m-603 -17 c6 -7 13 -37 16 -67 9 -76 64 -238 98 -286 15 -22 38 -57 49 -78 23 -41 40 -45 20 -5 -10 22 -10 22 5 3 31 -39 95 -154 95 -172 0 -12 -13 -4 -48 30 -26 26 -55 47 -64 47 -10 0 -32 13 -50 29 -18 15 -43 34 -56 40 -38 20 -142 168 -142 202 0 16 5 29 10 29 6 0 10 -9 10 -20 0 -11 5 -20 10 -20 6 0 10 7 10 15 0 8 5 15 10 15 6 0 10 -13 10 -29 0 -16 7 -34 15 -41 8 -7 15 -18 15 -25 0 -13 39 -65 40 -53 0 4 -9 22 -20 41 -11 18 -29 67 -39 108 -11 41 -24 87 -30 102 -14 36 -15 99 -2 78 6 -10 8 0 4 27 -4 33 -2 42 9 42 9 0 20 -6 25 -12z m188 -199 c15 -35 28 -71 29 -79 1 -8 8 -25 14 -37 7 -12 12 -34 12 -50 0 -15 12 -59 25 -98 27 -75 30 -95 16 -95 -11 0 -43 77 -66 154 -12 42 -19 55 -25 46 -7 -11 -11 -9 -18 10 -5 14 -6 26 -2 28 5 2 -2 27 -16 55 -13 29 -24 63 -24 77 1 21 3 19 19 -15 25 -52 25 -41 1 47 -11 40 -20 88 -19 108 0 28 3 24 14 -26 7 -34 25 -90 40 -125z m-3386 134 c6 -13 11 -35 11 -48 0 -21 -4 -24 -36 -22 -33 3 -38 7 -54 47 l-18 45 43 1 c36 1 45 -3 54 -23z m2900 -4 c-13 -26 -20 -21 -12 9 3 12 9 19 14 16 5 -3 4 -14 -2 -25z m-478 -32 c-13 -13 -15 1 -4 30 7 17 8 17 11 -1 2 -10 -1 -23 -7 -29z m719 29 c0 -7 -7 -19 -15 -26 -12 -10 -15 -9 -15 7 0 11 3 23 7 26 11 12 23 8 23 -7z m640 -31 c0 -28 -17 -34 -27 -9 -3 9 0 20 8 25 19 12 19 12 19 -16z m-2837 -8 c14 -10 16 -20 9 -52 -10 -52 -45 -59 -85 -19 -30 29 -36 63 -12 65 28 3 33 4 41 12 11 11 28 9 47 -6z m2767 -22 c-27 -29 -43 -32 -38 -8 3 17 48 46 57 37 2 -2 -6 -15 -19 -29z m-1199 -18 c-8 -8 -11 -7 -11 4 0 20 13 34 18 19 3 -7 -1 -17 -7 -23z m30 -10 c-8 -8 -11 -7 -11 4 0 20 13 34 18 19 3 -7 -1 -17 -7 -23z m374 23 c13 -5 0 -8 -42 -7 -34 1 -57 5 -50 9 16 10 66 9 92 -2z m-2212 -67 c3 -3 15 2 27 10 12 8 30 13 40 10 12 -3 20 1 23 14 4 15 5 14 6 -4 2 -41 -32 -63 -98 -63 -33 0 -62 4 -65 9 -3 5 -3 23 0 40 5 25 10 30 25 26 14 -5 19 -1 20 12 1 10 5 3 9 -15 4 -18 10 -35 13 -39z m3046 45 c1 -7 3 -33 4 -58 2 -42 0 -45 -25 -48 -34 -4 -35 9 -8 72 22 49 25 53 29 34z m-3789 -12 c0 -7 -7 -19 -15 -26 -9 -8 -15 -8 -15 -2 0 6 -3 17 -6 26 -4 12 0 16 15 16 12 0 21 -6 21 -14z m2520 -6 c22 -22 26 -45 10 -55 -5 -3 -10 -1 -10 5 0 6 -12 2 -26 -9 -30 -24 -52 -28 -35 -7 7 8 8 16 3 18 -5 1 -13 18 -17 36 -6 31 -5 32 24 32 18 0 40 -9 51 -20z m-1150 -10 c-11 -11 -20 -29 -20 -39 0 -25 46 -80 77 -92 22 -8 24 -13 17 -56 -6 -49 -24 -83 -24 -48 0 10 -27 46 -60 81 -53 55 -60 67 -60 103 0 34 4 43 28 55 15 8 35 15 45 16 15 0 15 -2 -3 -20z m2371 -19 c-6 -11 -11 -29 -11 -40 0 -24 -4 -25 -31 -11 -28 16 -23 42 14 65 35 23 44 18 28 -14z m-3669 5 c10 -14 10 -26 0 -26 -13 0 -52 31 -52 41 0 13 42 1 52 -15z m2101 11 c34 -15 64 -44 54 -53 -3 -3 -16 1 -29 10 -30 21 -94 20 -146 -4 -39 -18 -42 -18 -33 -1 14 25 35 41 68 51 40 12 50 12 86 -3z m1027 -2 c0 -8 -4 -15 -10 -15 -5 0 -10 7 -10 15 0 8 5 15 10 15 6 0 10 -7 10 -15z m-3153 -124 c2 -2 6 -2 9 2 3 3 -1 20 -10 38 -9 18 -15 34 -13 35 7 7 77 -50 77 -62 0 -17 -37 -37 -51 -28 -6 4 -15 1 -19 -6 -4 -7 -16 -9 -29 -5 -22 7 -27 34 -15 95 l7 32 20 -49 c11 -26 22 -50 24 -52z m1020 67 c23 -26 35 -65 23 -73 -4 -3 -13 9 -20 25 -7 16 -18 35 -26 41 -8 6 -14 15 -14 20 0 16 16 10 37 -13z m1721 -45 c-26 -26 -50 -44 -53 -41 -3 3 13 29 36 58 30 38 44 49 52 41 8 -8 -1 -24 -35 -58z m146 45 c4 -16 -1 -29 -18 -43 -13 -11 -28 -27 -32 -36 -14 -25 -124 -141 -124 -130 0 5 27 43 60 84 33 41 60 83 60 93 0 18 27 54 40 54 4 0 10 -10 14 -22z m-766 3 c10 -6 6 -15 -17 -39 -17 -17 -31 -39 -31 -50 0 -11 -7 -25 -15 -32 -10 -9 -15 -9 -15 -1 0 6 -11 11 -25 11 -55 0 -38 71 25 102 39 20 58 22 78 9z m-1185 -39 c17 -15 17 -15 11 4 -7 19 -7 19 14 0 23 -20 28 -51 13 -75 -8 -12 -15 -9 -42 13 -35 29 -69 70 -69 81 0 12 54 -5 73 -23z m-346 -29 c-3 -10 -5 -2 -5 17 0 19 2 27 5 18 2 -10 2 -26 0 -35z m1607 41 c26 -10 18 -23 -19 -30 -43 -8 -57 2 -31 22 22 16 28 17 50 8z m1461 -10 c17 -11 36 -14 55 -10 17 3 30 1 30 -4 0 -6 -18 -10 -41 -10 -42 0 -79 14 -79 30 0 14 7 12 35 -6z m-1080 -11 c-18 -44 -26 -89 -22 -117 2 -17 -4 -49 -14 -73 -17 -40 -17 -42 2 -59 30 -27 23 -54 -28 -106 -54 -54 -53 -70 6 -100 l33 -17 -27 -25 c-34 -32 -76 -41 -121 -26 -40 14 -59 6 -23 -9 50 -21 69 -45 72 -89 1 -23 5 -42 9 -42 15 0 28 -40 22 -65 -7 -27 -31 -33 -66 -14 -29 16 -40 -5 -33 -62 4 -36 1 -51 -13 -69 -25 -30 -42 -18 -42 29 0 20 -6 46 -14 56 -13 18 -18 18 -50 7 -45 -17 -56 -10 -56 33 0 28 -6 37 -30 50 -35 18 -37 36 -10 85 16 29 19 31 20 13 0 -35 31 -46 59 -20 l24 22 -7 -57 c-6 -47 -5 -58 7 -58 7 0 19 12 26 27 l13 27 16 -22 17 -22 14 22 c10 16 10 23 2 26 -6 2 -9 8 -5 13 3 5 -1 9 -8 9 -7 0 -24 23 -37 52 -16 33 -36 58 -60 72 l-36 21 28 9 c15 6 27 14 27 19 0 5 14 6 31 2 22 -5 29 -4 25 4 -4 6 -14 11 -22 11 -8 0 -14 5 -14 10 0 13 14 13 61 -2 43 -12 58 -6 40 16 -10 12 -7 22 19 55 28 35 33 48 35 109 2 38 10 83 19 100 22 42 20 62 -4 62 -15 0 -20 -7 -20 -28 0 -34 -9 -45 -25 -32 -9 7 -9 -4 -2 -45 7 -39 7 -62 -1 -80 -16 -34 -32 -32 -32 4 0 17 -4 32 -8 35 -5 3 -7 -17 -4 -45 4 -38 1 -54 -13 -69 -22 -25 -35 -25 -36 -2 0 14 -2 14 -9 -3 -4 -11 -19 -31 -32 -45 l-23 -25 -3 25 c-5 46 -12 70 -22 70 -5 0 -6 -16 -3 -35 4 -23 2 -35 -6 -35 -7 0 -9 9 -5 26 5 18 3 25 -4 20 -6 -3 -13 -20 -17 -36 -7 -32 -26 -51 -33 -32 -2 6 -10 8 -19 5 -17 -7 -17 -9 3 72 7 29 -24 64 -38 42 -4 -7 -9 -5 -14 8 -12 31 -45 56 -66 49 -10 -3 -18 -2 -18 3 0 4 -29 9 -65 11 -41 2 -65 -1 -65 -7 0 -6 15 -11 33 -11 17 0 39 -5 47 -10 13 -8 13 -10 -2 -10 -9 0 -20 -5 -24 -11 -5 -9 4 -10 30 -5 39 7 76 1 76 -14 0 -5 -16 -14 -35 -20 -36 -12 -51 -37 -15 -26 11 3 28 8 38 11 22 6 56 -20 48 -37 -23 -48 -42 -68 -68 -68 -13 0 -18 8 -18 30 0 26 -5 31 -31 37 -17 3 -33 12 -36 19 -3 8 -14 14 -24 14 -24 0 -39 37 -39 96 0 53 11 60 74 46 42 -9 47 -8 61 14 18 28 36 30 70 8 15 -10 34 -14 49 -10 21 5 25 2 31 -24 7 -32 38 -60 67 -60 10 0 32 23 53 55 23 37 41 55 55 55 20 0 27 16 32 74 4 42 44 68 103 68 33 0 57 6 73 19 32 24 57 25 47 2z m-1731 -25 c9 -12 16 -30 16 -39 0 -10 27 -50 60 -91 33 -40 60 -79 60 -86 0 -18 -112 104 -127 138 -7 16 -22 31 -33 35 -20 6 -25 21 -14 49 8 22 20 20 38 -6z m1000 0 c23 -32 20 -90 -4 -116 -26 -28 -89 -30 -118 -4 -24 20 -35 61 -22 82 8 12 10 10 10 -7 0 -35 1 -34 80 41 32 30 36 31 54 4z m-1374 4 c0 -22 -82 -133 -131 -176 -95 -84 -130 -88 -83 -9 32 55 77 103 96 103 7 0 2 -9 -12 -20 -14 -10 -22 -21 -19 -24 10 -10 90 66 85 80 -3 7 7 22 21 34 27 21 43 26 43 12z m1735 -2 c-3 -5 -21 -9 -38 -9 l-32 1 30 8 c43 11 47 11 40 0z m-643 -27 c23 -20 26 -52 3 -33 -8 7 -22 10 -30 6 -17 -6 -65 20 -65 35 0 16 73 10 92 -8z m1299 -16 c-13 -12 -20 -15 -16 -7 14 26 28 41 33 35 3 -3 -5 -16 -17 -28z m874 1 c-4 -18 -7 -48 -8 -65 0 -29 -4 -33 -26 -32 -14 0 -20 3 -13 6 6 2 12 9 12 14 0 4 -6 6 -13 3 -7 -2 -30 7 -51 21 -20 14 -42 25 -47 25 -6 0 -9 7 -7 16 4 21 57 28 95 13 23 -8 26 -8 16 2 -21 21 -15 29 18 29 30 0 31 -1 24 -32z m-3679 -4 c-21 -15 -106 -20 -106 -6 0 5 13 7 29 4 16 -2 41 3 57 11 34 18 48 12 20 -9z m484 -18 c7 -25 23 -60 35 -78 l23 -33 -38 -55 c-20 -30 -56 -87 -78 -126 -30 -51 -57 -83 -93 -109 l-52 -37 -26 19 c-23 18 -81 119 -95 169 -5 17 7 29 73 72 54 35 103 79 153 137 40 46 76 84 79 85 4 0 12 -20 19 -44z m1640 32 c0 -4 -12 -8 -26 -8 -14 0 -23 4 -19 9 6 11 45 10 45 -1z m718 -42 c-25 -23 -76 -69 -114 -104 -38 -34 -70 -58 -72 -52 -6 17 70 120 87 120 9 0 39 20 66 44 28 24 56 41 64 38 10 -4 0 -18 -31 -46z m-1603 27 c39 -19 58 -59 34 -74 -21 -13 -39 -11 -39 6 0 8 -6 12 -13 9 -11 -4 -47 51 -47 71 0 10 31 4 65 -12z m1715 -8 c0 -8 -7 -15 -15 -15 -8 0 -15 7 -15 15 0 8 7 15 15 15 8 0 15 -7 15 -15z m78 3 c16 -16 15 -28 -3 -28 -8 0 -19 9 -25 20 -8 15 -8 20 3 20 7 0 18 -5 25 -12z m-2998 -16 c0 -15 -11 -21 -27 -15 -12 5 -12 7 -1 14 17 11 28 11 28 1z m2868 -25 c2 -11 -3 -17 -13 -17 -18 0 -75 -55 -75 -72 0 -6 11 -3 25 6 50 33 48 13 -6 -48 -52 -59 -27 -62 31 -3 l43 42 -32 -42 c-17 -23 -53 -54 -79 -68 -26 -15 -59 -39 -74 -52 -29 -28 -44 -24 -59 14 -9 24 -4 32 58 95 37 37 67 74 66 81 -2 15 86 89 101 84 6 -2 12 -11 14 -20z m-2954 -8 c-19 -22 -19 -22 6 -13 41 13 100 5 100 -13 0 -9 -11 -16 -78 -49 -23 -11 -39 -24 -35 -27 3 -4 -3 -7 -15 -7 -16 0 -21 6 -21 28 0 15 -3 44 -7 65 l-6 37 37 0 38 0 -19 -21z m830 -4 c9 -14 15 -25 13 -25 -2 0 -14 11 -27 25 -13 14 -19 25 -13 25 6 0 18 -11 27 -25z m2342 4 c37 -41 160 -136 185 -142 13 -3 38 -20 54 -37 l29 -31 -18 -34 c-10 -18 -31 -46 -46 -60 l-28 -27 -54 41 c-40 30 -66 61 -98 118 -24 43 -52 89 -62 102 -14 18 -15 27 -7 37 6 8 9 23 6 34 -7 27 15 26 39 -1z m-1986 -11 c21 -23 27 -81 11 -107 -12 -19 -68 -7 -98 21 -30 28 -29 62 3 87 34 27 58 27 84 -1z m-364 -28 c24 -22 50 -40 58 -40 24 0 108 -121 94 -136 -2 -1 -44 36 -93 83 -50 46 -100 92 -112 100 -13 8 -23 19 -23 24 0 21 36 6 76 -31z m-121 12 c0 -18 -20 -15 -23 4 -3 10 1 15 10 12 7 -3 13 -10 13 -16z m2283 -14 c-7 -20 -48 -23 -48 -4 0 11 9 16 26 16 16 0 24 -5 22 -12z m673 -7 c17 -10 39 -16 50 -14 14 4 19 0 19 -14 0 -35 -21 -45 -47 -21 -13 12 -26 18 -30 14 -5 -4 7 -20 25 -35 29 -25 44 -61 24 -61 -5 0 -28 15 -52 33 -52 39 -61 44 -81 50 -11 4 -15 14 -11 36 4 28 8 31 38 31 18 0 47 -8 65 -19z m-2866 -30 c18 -16 39 -31 47 -35 10 -5 11 -7 0 -12 -9 -4 13 -31 63 -79 l76 -74 -15 -30 c-23 -43 -30 -44 -62 -10 -16 17 -51 43 -79 59 -27 16 -63 45 -78 65 -37 47 -26 45 23 -5 22 -22 46 -40 55 -40 10 0 -5 21 -39 55 -30 30 -61 55 -70 55 -9 0 -16 7 -16 15 0 23 41 19 47 -5 3 -11 9 -17 14 -14 5 3 16 -2 25 -10 16 -17 34 -21 34 -8 -1 16 -50 62 -74 68 -16 4 -23 11 -19 20 8 22 32 17 68 -15z m664 -52 c13 -57 9 -69 -17 -53 -17 11 -28 64 -18 90 11 28 25 13 35 -37z m148 26 c20 -13 23 -24 24 -83 1 -37 4 -53 6 -37 6 36 20 55 42 55 15 0 16 -8 10 -64 -8 -83 -13 -90 -49 -71 -27 14 -30 20 -29 66 1 27 -1 52 -4 55 -13 13 -27 -9 -27 -42 0 -23 -4 -33 -11 -29 -7 5 -8 25 -4 55 11 79 -29 127 -41 50 -8 -52 -20 -59 -29 -18 -4 18 -14 42 -21 53 -8 11 -14 24 -14 29 0 14 120 -2 147 -19z m-1475 -30 c3 -27 0 -35 -12 -35 -8 0 -39 -18 -69 -40 -29 -22 -57 -40 -62 -40 -20 0 -7 32 23 59 38 34 34 51 -5 20 -31 -23 -47 -18 -47 16 0 17 5 22 18 19 9 -3 31 4 47 15 17 11 46 20 66 20 35 1 37 -1 41 -34z m1148 14 c0 -6 9 -8 20 -4 11 4 20 2 20 -4 0 -6 -13 -11 -30 -11 -20 0 -30 5 -30 15 0 8 5 15 10 15 6 0 10 -5 10 -11z m2340 -38 c14 -10 44 -28 68 -41 46 -26 49 -32 27 -50 -8 -7 -15 -28 -15 -46 0 -45 -13 -43 -49 9 -29 42 -79 91 -115 112 -12 7 -15 16 -10 28 8 22 54 16 94 -12z m-512 -24 c5 -24 -15 -21 -21 4 -3 13 -1 19 6 16 7 -2 13 -11 15 -20z m-125 -30 c-11 -12 -23 -30 -26 -39 -5 -15 -72 -36 -82 -26 -3 2 23 25 58 50 64 48 85 54 50 15z m-2829 -32 c-36 -21 -85 -69 -121 -118 l-38 -51 -10 46 c-5 26 -13 50 -17 54 -5 4 -8 12 -8 17 0 6 3 8 6 5 3 -4 13 0 22 8 68 61 149 91 170 65 11 -13 10 -18 -4 -26z m1130 23 c15 -25 14 -84 -2 -100 -13 -13 -56 -3 -76 18 -25 24 -19 50 17 78 39 32 43 32 61 4z m184 6 c12 -8 27 -24 33 -36 10 -19 9 -20 -17 -14 -44 11 -17 -8 49 -34 40 -16 57 -27 55 -39 -2 -10 3 -15 12 -12 52 13 60 13 60 -3 0 -9 -7 -30 -15 -46 -13 -25 -22 -30 -50 -30 -26 0 -35 -4 -35 -16 0 -14 7 -15 40 -10 31 5 40 3 40 -8 0 -44 -44 -76 -104 -76 -74 0 -87 -25 -31 -63 19 -13 32 -27 28 -30 -10 -11 -62 -8 -84 3 -24 14 -25 -2 0 -24 14 -13 24 -14 45 -6 15 5 39 10 53 10 22 0 24 -2 13 -15 -7 -8 -34 -27 -60 -41 -42 -23 -48 -30 -54 -67 -3 -23 -8 -51 -12 -63 -8 -31 30 -24 65 12 36 36 51 48 73 57 10 3 24 22 32 42 18 42 31 46 22 8 -5 -21 -4 -24 3 -13 6 8 18 15 28 15 11 0 19 9 21 23 2 12 -1 22 -7 22 -6 0 -11 9 -11 21 0 11 -4 17 -10 14 -5 -3 -10 3 -10 14 0 11 5 23 10 26 6 3 10 -1 10 -10 0 -9 5 -13 10 -10 6 3 10 -4 10 -16 0 -18 2 -19 15 -9 11 9 15 9 15 1 0 -7 4 -10 9 -6 12 7 36 -98 27 -120 -6 -17 -17 -17 -73 0 -19 6 -25 2 -33 -21 -14 -35 -29 -45 -51 -34 -13 7 -34 -2 -84 -35 -37 -25 -73 -45 -80 -45 -18 0 -28 52 -21 105 7 42 7 43 -35 59 -39 16 -41 18 -34 49 4 18 8 52 9 77 1 39 6 47 36 67 79 50 77 48 56 72 -10 11 -34 25 -52 31 -19 7 -34 18 -34 25 0 14 5 20 50 54 l25 19 -23 53 -22 54 22 17 c28 22 38 22 66 2z m662 -3 c0 -11 -4 -23 -10 -26 -6 -4 -10 5 -10 19 0 14 5 26 10 26 6 0 10 -9 10 -19z m918 -27 c14 -10 13 -13 -5 -22 -11 -7 -30 -27 -41 -47 -15 -24 -39 -43 -77 -61 -30 -15 -58 -31 -61 -36 -3 -5 -12 -4 -20 3 -36 30 5 109 56 109 47 0 79 18 102 56 14 24 24 32 27 23 2 -8 11 -19 19 -25z m-2448 -4 c0 -19 -11 -26 -23 -14 -8 8 3 34 14 34 5 0 9 -9 9 -20z m530 -11 c17 -31 11 -39 -26 -39 -31 0 -35 3 -29 18 4 9 9 25 12 34 6 20 30 13 43 -13z m2431 -5 c43 -29 132 -129 142 -159 5 -13 -1 -9 -15 10 -41 54 -102 118 -142 147 -49 35 -36 37 15 2z m-2800 -39 l61 -45 -33 0 c-19 0 -39 4 -44 8 -12 8 -57 82 -50 82 3 0 32 -20 66 -45z m1853 -10 c-11 -58 -38 -125 -51 -125 -8 0 -16 -7 -19 -15 -7 -17 -37 -20 -65 -5 -26 15 -24 29 7 40 15 6 44 23 65 38 33 23 40 34 45 75 5 33 10 44 15 35 5 -7 6 -26 3 -43z m37 4 c-5 -74 -20 -81 -21 -11 0 47 3 63 13 59 8 -2 11 -19 8 -48z m180 14 c-5 -10 -16 -27 -25 -38 -14 -18 -15 -18 -16 -2 0 9 9 26 20 37 25 25 34 26 21 3z m269 -8 c0 -23 -21 -28 -35 -9 -12 16 -11 20 3 25 21 8 32 2 32 -16z m-2401 -25 c32 -34 44 -40 80 -40 36 0 44 -4 61 -32 23 -37 25 -59 9 -75 -17 -17 -119 36 -153 79 -14 18 -30 38 -36 44 -5 7 -15 14 -22 17 -10 4 -9 9 4 20 10 8 15 17 11 20 -3 4 -3 7 1 7 4 0 24 -18 45 -40z m2501 28 c0 -19 -18 -44 -25 -36 -4 3 0 15 7 27 15 24 18 26 18 9z m359 -19 c-8 -4 -19 -3 -26 3 -20 16 -5 30 19 17 16 -9 18 -13 7 -20z m-1646 15 c30 -5 37 -11 37 -29 0 -27 21 -38 57 -29 32 8 49 -14 25 -32 -15 -11 -13 -16 26 -52 47 -43 52 -66 21 -91 -17 -14 -19 -20 -10 -44 6 -16 11 -53 11 -84 0 -49 -2 -54 -17 -48 -10 4 -35 9 -56 12 -29 4 -41 13 -53 34 -17 34 -25 36 -49 9 -25 -28 -48 -25 -68 9 -23 38 -74 66 -94 49 -22 -18 -37 5 -29 46 7 38 22 48 29 19 6 -25 27 29 27 68 0 18 4 28 10 24 6 -4 8 -22 5 -43 -6 -37 -6 -37 9 -12 16 26 17 24 19 -22 3 -37 20 -36 30 2 9 37 37 41 37 5 0 -14 5 -25 11 -25 7 0 9 -11 6 -30 -4 -16 -2 -32 2 -35 11 -6 21 18 21 50 0 13 4 26 9 29 13 9 57 -47 71 -90 9 -26 15 -33 23 -25 14 14 -14 71 -58 115 l-30 31 33 3 c17 2 32 8 32 13 0 6 -26 8 -65 6 -64 -4 -83 2 -69 24 4 8 9 8 17 0 7 -7 16 -1 29 20 11 17 16 34 13 37 -3 3 -26 -4 -52 -17 l-46 -22 -24 23 c-59 55 -51 79 23 70 29 -3 44 -1 44 7 0 6 -14 11 -31 11 -17 0 -28 4 -24 10 7 11 43 13 98 4z m-1764 -32 c-43 -28 -102 -87 -146 -147 -12 -16 -23 -24 -23 -17 0 21 111 141 155 168 56 34 68 30 14 -4z m3441 -12 c6 -11 16 -17 22 -14 7 4 8 2 4 -5 -9 -14 12 -43 25 -35 5 3 8 2 7 -3 -2 -4 2 -10 7 -12 6 -2 20 -19 33 -38 17 -25 22 -42 17 -63 -9 -40 -18 -38 -34 8 -16 45 -64 122 -91 147 -21 19 -26 35 -10 35 5 0 14 -9 20 -20z m-447 -2 c15 -12 11 -19 -44 -65 -33 -29 -67 -53 -74 -53 -7 0 -18 -7 -25 -15 -8 -9 -8 -15 -2 -15 26 0 69 24 109 60 44 41 63 49 63 28 0 -13 -97 -97 -154 -133 -28 -18 -29 -18 -42 0 -8 10 -14 25 -14 32 0 7 -7 13 -15 13 -33 0 -12 29 47 65 34 22 75 51 92 67 33 32 36 33 59 16z m-2516 -29 c-16 -26 -37 -24 -37 5 0 19 4 22 24 19 22 -4 23 -8 13 -24z m2374 13 c-12 -23 -82 -72 -102 -72 -33 0 -27 14 12 31 22 10 52 28 66 39 32 25 36 25 24 2z m705 4 c10 -8 17 -17 14 -19 -3 -3 -16 3 -30 13 -29 22 -14 27 16 6z m-3546 -21 c-6 -8 -19 -11 -27 -8 -14 5 -14 8 2 19 22 16 40 8 25 -11z m722 8 c23 -21 26 -52 2 -33 -18 16 -38 50 -28 50 4 0 16 -7 26 -17z m360 5 c-9 -9 -15 -9 -24 0 -9 9 -7 12 12 12 19 0 21 -3 12 -12z m-724 -34 c-10 -10 -28 6 -28 24 0 15 1 15 17 -1 9 -9 14 -19 11 -23z m654 -9 c6 -13 8 -30 5 -39 -19 -48 -122 -66 -160 -27 -12 11 -16 21 -10 21 7 0 15 -4 18 -10 10 -16 35 -12 29 5 -4 9 0 15 9 15 9 0 18 13 22 30 7 33 14 36 34 18 11 -11 12 -9 6 10 -6 22 -5 23 15 12 11 -6 26 -22 32 -35z m1528 -5 c-11 -28 -20 -53 -20 -55 0 -3 -18 -16 -39 -31 -27 -17 -49 -24 -72 -22 -46 4 -47 24 -1 32 53 8 103 44 125 89 27 53 30 46 7 -13z m530 36 c0 -21 -21 -31 -30 -15 -5 7 -6 17 -4 21 9 14 34 9 34 -6z m-1507 -14 c20 -22 36 -89 19 -78 -7 4 -12 18 -12 32 0 13 -4 24 -10 24 -5 0 -10 -6 -10 -12 0 -20 -20 14 -20 35 0 22 13 22 33 -1z m1855 -90 c45 -86 65 -151 51 -168 -9 -11 -16 -1 -35 52 -12 36 -21 71 -18 78 3 7 -11 37 -31 66 -50 74 -52 78 -23 52 15 -13 40 -49 56 -80z m59 -9 c37 -71 44 -103 24 -103 -4 0 -14 19 -20 42 -7 23 -30 68 -52 99 -21 31 -35 59 -32 63 12 11 38 -23 80 -101z m-3507 91 c0 -3 -18 -26 -39 -50 -21 -24 -49 -70 -62 -102 -12 -31 -24 -59 -26 -62 -6 -7 -23 23 -23 43 0 19 42 87 56 90 5 1 8 5 7 10 -2 4 3 6 10 5 6 -2 12 5 12 14 0 10 5 18 10 19 6 1 16 10 23 20 12 18 32 26 32 13z m2001 -37 c-8 -8 -11 -7 -11 4 0 20 13 34 18 19 3 -7 -1 -17 -7 -23z m49 20 c0 -7 -7 -22 -15 -33 -12 -16 -14 -17 -15 -2 0 23 11 48 21 48 5 0 9 -6 9 -13z m-2185 -22 c-16 -13 -32 -22 -35 -19 -7 7 39 44 54 44 6 -1 -2 -12 -19 -25z m609 10 c3 -8 37 -35 75 -60 39 -25 73 -49 76 -55 3 -5 -3 -17 -13 -27 -10 -10 -22 -26 -25 -36 -4 -10 -14 -17 -22 -15 -24 5 -185 132 -182 142 7 22 26 14 70 -28 26 -25 61 -48 78 -51 40 -9 46 -2 11 16 -15 7 -45 30 -68 50 -22 20 -48 40 -58 46 -11 6 -16 15 -12 22 10 16 63 14 70 -4z m192 -55 c18 0 18 -16 0 -23 -15 -6 -46 12 -88 51 -44 41 -32 44 23 6 28 -19 57 -34 65 -34z m-306 25 c0 -18 -4 -23 -15 -19 -16 6 -20 26 -8 37 13 14 23 6 23 -18z m2806 -16 c-3 -18 -1 -38 5 -45 6 -7 9 -20 7 -29 -2 -13 -6 -14 -20 -3 -13 10 -15 23 -11 61 3 26 10 47 16 47 5 0 7 -13 3 -31z m-3187 -35 c-27 -40 -54 -94 -73 -149 -7 -18 -8 -19 -17 -3 -16 29 88 217 112 203 5 -4 -5 -26 -22 -51z m77 48 c-3 -5 -21 -33 -41 -62 -20 -29 -35 -60 -34 -69 3 -21 -34 -141 -43 -141 -15 0 -17 39 -4 77 23 65 66 146 94 176 25 26 38 35 28 19z m2694 -1 c0 -13 -26 -32 -33 -24 -14 13 -6 33 13 33 11 0 20 -4 20 -9z m465 -160 c-13 -13 -23 20 -24 80 -1 103 13 109 20 9 4 -47 5 -87 4 -89z m210 55 c19 -37 35 -80 35 -94 0 -27 -25 -62 -44 -62 -14 0 -8 92 6 101 11 7 -4 42 -32 74 -9 11 -20 29 -22 40 -3 11 -9 29 -13 40 -13 38 33 -27 70 -99z m-1845 67 c0 -10 -5 -25 -10 -33 -7 -11 -10 -7 -10 18 0 17 5 32 10 32 6 0 10 -8 10 -17z m-392 -34 c-23 -15 -65 -10 -73 9 -5 14 -4 15 6 5 17 -17 30 -16 23 1 -4 10 3 16 23 18 30 3 45 -18 21 -33z m1847 31 c-3 -5 -16 -15 -28 -21 -22 -12 -22 -12 -3 10 19 21 43 30 31 11z m81 -1 c3 -6 -4 -25 -16 -41 l-23 -31 22 6 c17 4 21 2 19 -11 -2 -13 -26 -21 -98 -34 -120 -21 -130 -21 -130 -3 0 8 7 15 15 15 8 0 15 5 15 11 0 6 12 8 30 5 17 -3 42 -8 58 -11 16 -3 35 0 47 9 18 14 16 15 -30 10 l-50 -6 34 29 c40 32 83 61 93 62 4 1 10 -4 14 -10z m-327 -25 c11 -24 8 -44 -7 -44 -13 0 -32 39 -26 55 9 22 19 19 33 -11z m461 -19 c6 -26 5 -35 -3 -32 -7 2 -13 21 -15 43 -4 46 6 40 18 -11z m77 -89 c5 -44 3 -54 -12 -60 -10 -3 -20 -5 -22 -2 -3 2 -6 48 -8 103 l-4 98 21 -44 c11 -23 22 -67 25 -95z m-3050 90 c-10 -26 -25 -18 -19 10 3 17 8 22 15 15 5 -5 7 -17 4 -25z m-42 -75 c0 -46 -4 -66 -14 -69 -11 -4 -13 4 -8 34 4 22 7 62 8 89 0 33 3 43 7 30 4 -11 7 -49 7 -84z m480 79 c0 -22 -29 -18 -33 3 -3 14 1 18 15 15 10 -2 18 -10 18 -18z m-652 -27 c-18 -44 -43 -82 -44 -68 0 6 -5 -3 -10 -20 -5 -19 -5 -31 1 -33 6 -2 10 -28 10 -58 l0 -54 -25 16 c-18 12 -25 25 -25 49 0 43 80 205 101 205 4 0 1 -17 -8 -37z m1437 27 c0 -18 -51 -60 -72 -60 -56 0 -81 49 -25 51 17 1 43 5 57 9 35 11 40 11 40 0z m-1355 -122 c-3 -51 -5 -96 -5 -100 0 -13 -27 -9 -40 6 -9 12 -8 28 3 73 18 68 34 113 42 113 3 0 3 -42 0 -92z m47 53 c1 -18 -5 -37 -12 -44 -10 -10 -12 -7 -6 13 3 14 6 36 6 49 0 35 11 19 12 -18z m82 -8 c-17 -12 -19 -12 -22 2 -2 9 2 23 9 31 11 14 14 13 22 -2 7 -13 5 -21 -9 -31z m94 30 c15 -9 37 -25 49 -36 12 -11 27 -16 34 -12 8 6 10 4 4 -5 -5 -8 -22 -11 -54 -6 -42 5 -44 4 -26 -9 18 -14 49 -14 105 1 21 5 68 -32 55 -44 -12 -12 -100 2 -212 34 -7 2 -13 10 -13 18 0 10 6 13 17 9 16 -6 16 -5 0 17 -34 48 -12 66 41 33z m302 -5 c0 -35 -16 -56 -31 -41 -10 10 -10 18 1 38 17 31 30 32 30 3z m2594 -24 c4 -9 4 -19 1 -22 -7 -8 -35 19 -29 29 8 14 21 11 28 -7z m-186 -45 c-12 -7 -24 -7 -35 0 -15 9 -12 10 17 10 29 0 32 -1 18 -10z m-70 -8 c11 -7 11 -9 -1 -14 -19 -7 -57 2 -57 14 0 11 41 11 58 0z m215 -15 c26 -21 27 -24 10 -30 -12 -5 -23 0 -35 14 -35 43 -19 52 25 16z m-3035 -3 c-5 -25 -28 -28 -28 -4 0 12 6 21 16 21 9 0 14 -7 12 -17z m2972 -7 c0 -7 10 -21 23 -29 l22 -16 -26 0 c-15 -1 -37 8 -50 19 -21 17 -22 21 -9 30 21 14 40 12 40 -4z m-40 -41 c29 -30 19 -32 -26 -4 -39 24 -42 29 -16 29 10 0 29 -11 42 -25z m-2738 3 c-17 -8 -26 -8 -34 0 -9 9 -4 12 23 11 32 0 33 -1 11 -11z m-132 -7 c0 -5 -8 -19 -18 -32 -13 -16 -24 -20 -38 -15 -16 6 -15 9 11 31 32 26 45 31 45 16z m224 0 c3 -5 -1 -12 -10 -15 -23 -9 -54 -7 -54 3 0 18 54 28 64 12z m2831 -34 c7 -6 -5 -7 -34 -3 -53 8 -68 16 -51 26 14 9 68 -6 85 -23z m-2996 14 c18 -11 7 -27 -30 -46 -36 -19 -60 -9 -30 12 12 8 21 21 21 29 0 16 18 18 39 5z m61 -25 c0 -6 -66 -46 -75 -46 -5 0 2 11 15 25 20 21 60 35 60 21z m-160 -45 c0 -5 -20 -14 -44 -20 -57 -14 -61 -14 -46 3 16 21 90 34 90 17z"></path><path id="p1DtQ5m2Q5" d="M2610 4735 c14 -8 32 -14 40 -14 9 0 4 6 -10 14 -14 8 -32 14 -40 14 -9 0 -4 -6 10 -14z"></path><path id="pAizYnvWi" d="M2720 4671 c19 -17 41 -31 50 -31 11 1 10 4 -5 12 -11 6 -33 20 -50 30 -27 18 -27 17 5 -11z"></path><path id="pkp9MGVSk" d="M2874 4025 c-9 -14 -14 -28 -10 -32 3 -3 7 -4 9 -2 1 2 13 16 26 32 20 22 21 27 8 27 -9 0 -24 -11 -33 -25z"></path><path id="p90Z5uWqS" d="M3410 3443 c0 -3 6 -14 14 -22 8 -9 19 -32 24 -51 9 -29 10 -31 11 -10 1 14 -8 40 -19 58 -19 30 -30 40 -30 25z"></path><path id="p1G9lbtHSN" d="M1321 3504 c10 -10 19 -28 22 -39 4 -15 5 -14 6 7 1 19 -6 31 -21 39 -22 11 -22 11 -7 -7z"></path><path id="p0GZt7wa1" d="M2410 2586 c-7 -13 -10 -30 -8 -37 3 -8 11 0 20 19 19 37 7 53 -12 18z"></path><path id="pr6T4Tvmy" d="M2436 2548 c-11 -18 -28 -41 -38 -51 -15 -14 -17 -26 -12 -55 4 -20 8 -38 9 -40 6 -6 45 23 50 37 5 11 1 11 -13 -2 -24 -22 -32 -21 -32 2 0 10 11 26 24 34 13 9 26 26 29 39 3 13 9 33 12 46 11 33 -8 27 -29 -10z"></path><path id="pOMr73Re9" d="M3260 2320 c0 -5 16 -10 36 -10 21 0 33 4 29 10 -3 6 -19 10 -36 10 -16 0 -29 -4 -29 -10z"></path><path id="pLm77sA55" d="M2850 2313 c-27 -5 -41 -20 -34 -37 4 -10 54 -11 194 -7 8 1 31 -2 50 -5 28 -5 39 -1 55 17 l20 22 -22 -12 c-28 -14 -33 -14 -33 2 0 10 -17 11 -82 4 -70 -7 -84 -6 -94 7 -6 9 -15 15 -20 15 -5 -1 -20 -4 -34 -6z"></path><path id="pImmPWJkt" d="M2930 2310 c0 -5 6 -10 14 -10 8 0 18 5 21 10 3 6 -3 10 -14 10 -12 0 -21 -4 -21 -10z"></path><path id="pZ0w0GRIs" d="M2346 1928 c-15 -37 -16 -43 -2 -56 14 -14 16 -14 22 2 4 11 1 22 -7 27 -12 8 -11 11 4 20 9 5 17 19 17 29 0 33 -17 22 -34 -22z"></path><path id="pPF1CYWIT" d="M1957 1820 c4 -14 0 -20 -11 -20 -9 0 -16 5 -16 10 0 6 -5 10 -11 10 -7 0 -9 -10 -5 -25 5 -20 3 -23 -11 -18 -12 4 -15 3 -8 -4 6 -6 28 -14 49 -18 36 -6 38 -5 26 9 -16 21 -5 33 15 16 12 -10 15 -10 15 3 0 11 5 14 18 10 15 -6 15 -5 4 10 -8 8 -20 13 -28 10 -7 -3 -17 2 -20 11 -9 23 -23 20 -17 -4z"></path><path id="p12Kf53eu0" d="M2153 1623 c-7 -2 -13 -11 -13 -19 0 -8 -10 -14 -25 -14 -14 0 -25 -4 -25 -9 0 -12 49 -20 56 -10 3 5 14 9 25 9 10 0 19 5 19 11 0 6 -8 8 -17 5 -17 -6 -17 -5 -1 7 24 19 11 33 -19 20z"></path><path id="pGVe45oSs" d="M2300 1610 c-11 -7 -7 -10 18 -10 20 0 31 4 27 10 -8 13 -26 13 -45 0z"></path><path id="p89YHJOL2" d="M2315 1575 c32 -14 41 -13 30 4 -3 6 -18 11 -33 10 l-27 -1 30 -13z"></path><path id="puRSA8qwl" d="M2100 1545 c-14 -16 -3 -20 19 -6 8 5 9 11 3 15 -5 3 -15 -1 -22 -9z"></path><path id="pIvmlUMau" d="M2408 1463 c18 -2 45 -2 60 0 15 2 0 4 -33 4 -33 0 -45 -2 -27 -4z"></path><path id="pMlcdL7OO" d="M2758 1430 c12 -29 18 -34 20 -20 4 21 -14 60 -28 60 -5 0 -1 -18 8 -40z"></path><path id="pXEUHUNBL" d="M2265 1420 c-18 -8 -18 -9 5 -9 14 0 32 4 40 9 12 8 12 10 -5 9 -11 0 -29 -4 -40 -9z"></path><path id="pwDc50HuA" d="M2503 1403 c9 -2 25 -2 35 0 9 3 1 5 -18 5 -19 0 -27 -2 -17 -5z"></path><path id="p2ITp6ATc" d="M2590 1350 c8 -5 24 -9 35 -9 l20 0 -20 9 c-11 5 -27 9 -35 9 -13 1 -13 0 0 -9z"></path><path id="pBcIqXIll" d="M2073 1180 c-13 -5 -23 -16 -23 -23 0 -12 8 -10 40 5 22 11 40 22 40 24 0 7 -34 3 -57 -6z"></path><path id="pkXnFeqm9" d="M3742 2210 c0 -19 2 -27 5 -17 2 9 2 25 0 35 -3 9 -5 1 -5 -18z"></path><path id="p0IhOsRG0" d="M1844 2214 c22 -8 49 -11 60 -7 17 6 14 8 -19 14 -64 12 -84 9 -41 -7z"></path><path id="pNhDJz1jb" d="M3650 1734 c0 -17 18 -36 30 -32 7 2 4 10 -9 22 -12 11 -21 15 -21 10z"></path><path id="p1GN8atgxF" d="M3651 1273 c-1 -7 5 -32 13 -55 8 -24 16 -52 19 -63 3 -12 5 -5 6 15 0 32 -36 132 -38 103z"></path><path id="pp9JFKy7H" d="M3693 1125 c17 -37 47 -105 60 -135 8 -19 22 -44 31 -55 16 -19 16 -19 7 5 -18 51 -69 155 -86 175 -9 11 -14 16 -12 10z"></path><path id="pWAazITNF" d="M1850 280 c-24 -15 -7 -19 20 -5 15 8 19 14 10 14 -8 1 -22 -3 -30 -9z"></path><path id="ppgINiS3G" d="M2186 265 c-3 -9 -6 -24 -5 -33 0 -9 5 -4 10 12 9 32 6 48 -5 21z"></path></g></g></svg>
